%TF.GenerationSoftware,KiCad,Pcbnew,9.0.0*%
%TF.CreationDate,2025-04-03T14:13:48-04:00*%
%TF.ProjectId,Uno Shield Project,556e6f20-5368-4696-956c-642050726f6a,rev?*%
%TF.SameCoordinates,Original*%
%TF.FileFunction,Copper,L2,Bot*%
%TF.FilePolarity,Positive*%
%FSLAX46Y46*%
G04 Gerber Fmt 4.6, Leading zero omitted, Abs format (unit mm)*
G04 Created by KiCad (PCBNEW 9.0.0) date 2025-04-03 14:13:48*
%MOMM*%
%LPD*%
G01*
G04 APERTURE LIST*
%TA.AperFunction,ComponentPad*%
%ADD10R,1.700000X1.700000*%
%TD*%
%TA.AperFunction,ComponentPad*%
%ADD11O,1.700000X1.700000*%
%TD*%
%TA.AperFunction,ComponentPad*%
%ADD12C,1.600000*%
%TD*%
%TA.AperFunction,ComponentPad*%
%ADD13O,1.600000X1.600000*%
%TD*%
%TA.AperFunction,ComponentPad*%
%ADD14R,1.500000X1.500000*%
%TD*%
%TA.AperFunction,ComponentPad*%
%ADD15C,1.500000*%
%TD*%
%TA.AperFunction,ComponentPad*%
%ADD16R,1.800000X1.800000*%
%TD*%
%TA.AperFunction,ComponentPad*%
%ADD17C,1.800000*%
%TD*%
%TA.AperFunction,ComponentPad*%
%ADD18R,1.600000X1.600000*%
%TD*%
G04 APERTURE END LIST*
D10*
%TO.P,J1,1,Pin_1*%
%TO.N,unconnected-(J1-Pin_1-Pad1)*%
X127940000Y-97460000D03*
D11*
%TO.P,J1,2,Pin_2*%
%TO.N,/IOREF*%
X130480000Y-97460000D03*
%TO.P,J1,3,Pin_3*%
%TO.N,/~{RESET}*%
X133020000Y-97460000D03*
%TO.P,J1,4,Pin_4*%
%TO.N,+3V3*%
X135560000Y-97460000D03*
%TO.P,J1,5,Pin_5*%
%TO.N,+5V*%
X138100000Y-97460000D03*
%TO.P,J1,6,Pin_6*%
%TO.N,GND*%
X140640000Y-97460000D03*
%TO.P,J1,7,Pin_7*%
X143180000Y-97460000D03*
%TO.P,J1,8,Pin_8*%
%TO.N,VCC*%
X145720000Y-97460000D03*
%TD*%
D10*
%TO.P,J3,1,Pin_1*%
%TO.N,/A0*%
X150800000Y-97460000D03*
D11*
%TO.P,J3,2,Pin_2*%
%TO.N,/A1*%
X153340000Y-97460000D03*
%TO.P,J3,3,Pin_3*%
%TO.N,/A2*%
X155880000Y-97460000D03*
%TO.P,J3,4,Pin_4*%
%TO.N,/A3*%
X158420000Y-97460000D03*
%TO.P,J3,5,Pin_5*%
%TO.N,/A4*%
X160960000Y-97460000D03*
%TO.P,J3,6,Pin_6*%
%TO.N,/A5*%
X163500000Y-97460000D03*
%TD*%
D10*
%TO.P,J2,1,Pin_1*%
%TO.N,/SCL{slash}A5*%
X118796000Y-49200000D03*
D11*
%TO.P,J2,2,Pin_2*%
%TO.N,/SDA{slash}A4*%
X121336000Y-49200000D03*
%TO.P,J2,3,Pin_3*%
%TO.N,/AREF*%
X123876000Y-49200000D03*
%TO.P,J2,4,Pin_4*%
%TO.N,GND*%
X126416000Y-49200000D03*
%TO.P,J2,5,Pin_5*%
%TO.N,/13*%
X128956000Y-49200000D03*
%TO.P,J2,6,Pin_6*%
%TO.N,/12*%
X131496000Y-49200000D03*
%TO.P,J2,7,Pin_7*%
%TO.N,/\u002A11*%
X134036000Y-49200000D03*
%TO.P,J2,8,Pin_8*%
%TO.N,/\u002A10*%
X136576000Y-49200000D03*
%TO.P,J2,9,Pin_9*%
%TO.N,/\u002A9*%
X139116000Y-49200000D03*
%TO.P,J2,10,Pin_10*%
%TO.N,/8*%
X141656000Y-49200000D03*
%TD*%
D10*
%TO.P,J4,1,Pin_1*%
%TO.N,/7*%
X145720000Y-49200000D03*
D11*
%TO.P,J4,2,Pin_2*%
%TO.N,/\u002A6*%
X148260000Y-49200000D03*
%TO.P,J4,3,Pin_3*%
%TO.N,/\u002A5*%
X150800000Y-49200000D03*
%TO.P,J4,4,Pin_4*%
%TO.N,/4*%
X153340000Y-49200000D03*
%TO.P,J4,5,Pin_5*%
%TO.N,/\u002A3*%
X155880000Y-49200000D03*
%TO.P,J4,6,Pin_6*%
%TO.N,/2*%
X158420000Y-49200000D03*
%TO.P,J4,7,Pin_7*%
%TO.N,/TX{slash}1*%
X160960000Y-49200000D03*
%TO.P,J4,8,Pin_8*%
%TO.N,/RX{slash}0*%
X163500000Y-49200000D03*
%TD*%
D12*
%TO.P,R4,1*%
%TO.N,Net-(U1-RXD)*%
X141610000Y-57090000D03*
D13*
%TO.P,R4,2*%
%TO.N,GND*%
X133990000Y-57090000D03*
%TD*%
D14*
%TO.P,U1,1,GND*%
%TO.N,GND*%
X152300000Y-55560000D03*
D15*
%TO.P,U1,2,IO2*%
%TO.N,unconnected-(U1-IO2-Pad2)*%
X152300000Y-58100000D03*
%TO.P,U1,3,IO0*%
%TO.N,unconnected-(U1-IO0-Pad3)*%
X152300000Y-60640000D03*
%TO.P,U1,4,RXD*%
%TO.N,Net-(U1-RXD)*%
X152300000Y-63180000D03*
%TO.P,U1,5,TXD*%
%TO.N,/\u002A10*%
X149760000Y-55560000D03*
%TO.P,U1,6,EN*%
%TO.N,unconnected-(U1-EN-Pad6)*%
X149760000Y-58100000D03*
%TO.P,U1,7,~{RST}*%
%TO.N,Net-(U1-~{RST})*%
X149760000Y-60640000D03*
%TO.P,U1,8,VCC*%
%TO.N,+3V3*%
X149760000Y-63180000D03*
%TD*%
D12*
%TO.P,C3,1*%
%TO.N,+3V3*%
X148750000Y-68980000D03*
%TO.P,C3,2*%
%TO.N,GND*%
X151250000Y-68980000D03*
%TD*%
%TO.P,R1,1*%
%TO.N,/\u002A11*%
X134000000Y-53860000D03*
D13*
%TO.P,R1,2*%
%TO.N,Net-(U1-RXD)*%
X141620000Y-53860000D03*
%TD*%
D16*
%TO.P,D3,1,K*%
%TO.N,GND*%
X108885000Y-53264000D03*
D17*
%TO.P,D3,2,A*%
%TO.N,Net-(D3-A)*%
X111425000Y-53264000D03*
%TD*%
D14*
%TO.P,J6,1,1*%
%TO.N,GND*%
X155372000Y-79632000D03*
D15*
%TO.P,J6,2,2*%
%TO.N,+5V*%
X155372000Y-77632000D03*
%TO.P,J6,3,3*%
%TO.N,unconnected-(J6-Pad3)*%
X155372000Y-75632000D03*
%TO.P,J6,4,4*%
%TO.N,/\u002A6*%
X155372000Y-73632000D03*
%TD*%
D14*
%TO.P,J5,1,1*%
%TO.N,GND*%
X143180000Y-79648000D03*
D15*
%TO.P,J5,2,2*%
%TO.N,+5V*%
X143180000Y-77648000D03*
%TO.P,J5,3,3*%
%TO.N,Net-(J5-Pad3)*%
X143180000Y-75648000D03*
%TO.P,J5,4,4*%
%TO.N,Net-(J5-Pad4)*%
X143180000Y-73648000D03*
%TD*%
D12*
%TO.P,R7,1*%
%TO.N,/13*%
X123368000Y-53264000D03*
D13*
%TO.P,R7,2*%
%TO.N,Net-(D3-A)*%
X115748000Y-53264000D03*
%TD*%
D12*
%TO.P,R10,1*%
%TO.N,+5V*%
X129972000Y-75616000D03*
D13*
%TO.P,R10,2*%
%TO.N,Net-(J5-Pad3)*%
X137592000Y-75616000D03*
%TD*%
D12*
%TO.P,C4,1*%
%TO.N,+5V*%
X132552000Y-79680000D03*
%TO.P,C4,2*%
%TO.N,GND*%
X135052000Y-79680000D03*
%TD*%
D18*
%TO.P,C2,1*%
%TO.N,+3V3*%
X131964000Y-89840000D03*
D12*
%TO.P,C2,2*%
%TO.N,GND*%
X129464000Y-89840000D03*
%TD*%
%TO.P,R2,1*%
%TO.N,Net-(U1-RXD)*%
X141602000Y-66980000D03*
D13*
%TO.P,R2,2*%
%TO.N,+3V3*%
X133982000Y-66980000D03*
%TD*%
D12*
%TO.P,R8,1*%
%TO.N,Net-(U1-~{RST})*%
X141610000Y-63660000D03*
D13*
%TO.P,R8,2*%
%TO.N,GND*%
X133990000Y-63660000D03*
%TD*%
D18*
%TO.P,C1,1*%
%TO.N,+5V*%
X138100000Y-89840000D03*
D12*
%TO.P,C1,2*%
%TO.N,GND*%
X140600000Y-89840000D03*
%TD*%
%TO.P,R9,1*%
%TO.N,+5V*%
X130010000Y-72060000D03*
D13*
%TO.P,R9,2*%
%TO.N,Net-(J5-Pad4)*%
X137630000Y-72060000D03*
%TD*%
D12*
%TO.P,R3,1*%
%TO.N,/\u002A9*%
X133990000Y-60340000D03*
D13*
%TO.P,R3,2*%
%TO.N,Net-(U1-~{RST})*%
X141610000Y-60340000D03*
%TD*%
%TA.AperFunction,Conductor*%
%TO.N,GND*%
G36*
X142714075Y-97267007D02*
G01*
X142680000Y-97394174D01*
X142680000Y-97525826D01*
X142714075Y-97652993D01*
X142746988Y-97710000D01*
X141073012Y-97710000D01*
X141105925Y-97652993D01*
X141140000Y-97525826D01*
X141140000Y-97394174D01*
X141105925Y-97267007D01*
X141073012Y-97210000D01*
X142746988Y-97210000D01*
X142714075Y-97267007D01*
G37*
%TD.AperFunction*%
%TA.AperFunction,Conductor*%
G36*
X163484404Y-46755185D02*
G01*
X163505046Y-46771819D01*
X165928181Y-49194954D01*
X165961666Y-49256277D01*
X165964500Y-49282635D01*
X165964500Y-60370414D01*
X165963112Y-60379742D01*
X165964500Y-60385293D01*
X165964500Y-60391020D01*
X165964597Y-60391253D01*
X165970333Y-60408626D01*
X165970396Y-60408881D01*
X165973804Y-60413481D01*
X165975994Y-60418767D01*
X165982658Y-60425431D01*
X165988115Y-60432796D01*
X165988120Y-60432801D01*
X165988278Y-60433014D01*
X165993185Y-60435958D01*
X165997233Y-60440006D01*
X166005947Y-60443615D01*
X168393708Y-61876272D01*
X168444297Y-61906625D01*
X168491656Y-61957996D01*
X168504500Y-62012954D01*
X168504500Y-96107364D01*
X168484815Y-96174403D01*
X168468181Y-96195045D01*
X165997233Y-98665994D01*
X165975995Y-98687231D01*
X165964500Y-98714982D01*
X165964500Y-99231907D01*
X165963903Y-99244061D01*
X165963903Y-99244062D01*
X165952505Y-99359778D01*
X165947763Y-99383618D01*
X165917832Y-99482290D01*
X165915789Y-99489024D01*
X165906486Y-99511482D01*
X165854561Y-99608627D01*
X165841056Y-99628839D01*
X165771176Y-99713988D01*
X165753988Y-99731176D01*
X165668839Y-99801056D01*
X165648627Y-99814561D01*
X165551482Y-99866486D01*
X165529028Y-99875787D01*
X165487028Y-99888528D01*
X165423618Y-99907763D01*
X165399778Y-99912505D01*
X165291162Y-99923203D01*
X165284060Y-99923903D01*
X165271907Y-99924500D01*
X100768093Y-99924500D01*
X100755939Y-99923903D01*
X100747995Y-99923120D01*
X100640221Y-99912505D01*
X100616381Y-99907763D01*
X100599445Y-99902625D01*
X100510968Y-99875786D01*
X100488517Y-99866486D01*
X100391372Y-99814561D01*
X100371160Y-99801056D01*
X100286011Y-99731176D01*
X100268823Y-99713988D01*
X100198943Y-99628839D01*
X100185438Y-99608627D01*
X100133510Y-99511476D01*
X100124215Y-99489037D01*
X100092234Y-99383612D01*
X100087494Y-99359777D01*
X100076097Y-99244061D01*
X100075500Y-99231907D01*
X100075500Y-97334038D01*
X112369500Y-97334038D01*
X112369500Y-97585961D01*
X112408910Y-97834785D01*
X112486760Y-98074383D01*
X112601132Y-98298848D01*
X112749201Y-98502649D01*
X112749205Y-98502654D01*
X112927345Y-98680794D01*
X112927350Y-98680798D01*
X113037587Y-98760889D01*
X113131155Y-98828870D01*
X113274184Y-98901747D01*
X113355616Y-98943239D01*
X113355618Y-98943239D01*
X113355621Y-98943241D01*
X113595215Y-99021090D01*
X113844038Y-99060500D01*
X113844039Y-99060500D01*
X114095961Y-99060500D01*
X114095962Y-99060500D01*
X114344785Y-99021090D01*
X114584379Y-98943241D01*
X114808845Y-98828870D01*
X115012656Y-98680793D01*
X115190793Y-98502656D01*
X115338870Y-98298845D01*
X115453241Y-98074379D01*
X115531090Y-97834785D01*
X115570500Y-97585962D01*
X115570500Y-97334038D01*
X115531090Y-97085215D01*
X115453241Y-96845621D01*
X115453239Y-96845618D01*
X115453239Y-96845616D01*
X115403498Y-96747994D01*
X115338870Y-96621155D01*
X115295416Y-96561345D01*
X126581500Y-96561345D01*
X126581500Y-98358654D01*
X126588011Y-98419202D01*
X126588011Y-98419204D01*
X126619138Y-98502656D01*
X126639111Y-98556204D01*
X126726739Y-98673261D01*
X126843796Y-98760889D01*
X126980799Y-98811989D01*
X127008050Y-98814918D01*
X127041345Y-98818499D01*
X127041362Y-98818500D01*
X128838638Y-98818500D01*
X128838654Y-98818499D01*
X128865692Y-98815591D01*
X128899201Y-98811989D01*
X129036204Y-98760889D01*
X129153261Y-98673261D01*
X129240889Y-98556204D01*
X129285957Y-98435371D01*
X129327827Y-98379442D01*
X129393291Y-98355025D01*
X129461564Y-98369877D01*
X129489818Y-98391028D01*
X129594996Y-98496206D01*
X129767991Y-98621894D01*
X129854542Y-98665994D01*
X129958516Y-98718972D01*
X129958519Y-98718973D01*
X130060200Y-98752010D01*
X130161884Y-98785049D01*
X130373084Y-98818500D01*
X130373085Y-98818500D01*
X130586915Y-98818500D01*
X130586916Y-98818500D01*
X130798116Y-98785049D01*
X131001483Y-98718972D01*
X131192009Y-98621894D01*
X131365004Y-98496206D01*
X131516206Y-98345004D01*
X131641894Y-98172009D01*
X131641896Y-98172004D01*
X131644270Y-98168132D01*
X131696080Y-98121254D01*
X131765009Y-98109829D01*
X131829173Y-98137483D01*
X131855730Y-98168132D01*
X131858103Y-98172005D01*
X131858105Y-98172008D01*
X131858106Y-98172009D01*
X131983794Y-98345004D01*
X132134996Y-98496206D01*
X132307991Y-98621894D01*
X132394542Y-98665994D01*
X132498516Y-98718972D01*
X132498519Y-98718973D01*
X132600200Y-98752010D01*
X132701884Y-98785049D01*
X132913084Y-98818500D01*
X132913085Y-98818500D01*
X133126915Y-98818500D01*
X133126916Y-98818500D01*
X133338116Y-98785049D01*
X133541483Y-98718972D01*
X133732009Y-98621894D01*
X133905004Y-98496206D01*
X134056206Y-98345004D01*
X134181894Y-98172009D01*
X134181896Y-98172004D01*
X134184270Y-98168132D01*
X134236080Y-98121254D01*
X134305009Y-98109829D01*
X134369173Y-98137483D01*
X134395730Y-98168132D01*
X134398103Y-98172005D01*
X134398105Y-98172008D01*
X134398106Y-98172009D01*
X134523794Y-98345004D01*
X134674996Y-98496206D01*
X134847991Y-98621894D01*
X134934542Y-98665994D01*
X135038516Y-98718972D01*
X135038519Y-98718973D01*
X135140200Y-98752010D01*
X135241884Y-98785049D01*
X135453084Y-98818500D01*
X135453085Y-98818500D01*
X135666915Y-98818500D01*
X135666916Y-98818500D01*
X135878116Y-98785049D01*
X136081483Y-98718972D01*
X136272009Y-98621894D01*
X136445004Y-98496206D01*
X136596206Y-98345004D01*
X136721894Y-98172009D01*
X136721896Y-98172004D01*
X136724270Y-98168132D01*
X136776080Y-98121254D01*
X136845009Y-98109829D01*
X136909173Y-98137483D01*
X136935730Y-98168132D01*
X136938103Y-98172005D01*
X136938105Y-98172008D01*
X136938106Y-98172009D01*
X137063794Y-98345004D01*
X137214996Y-98496206D01*
X137387991Y-98621894D01*
X137474542Y-98665994D01*
X137578516Y-98718972D01*
X137578519Y-98718973D01*
X137680200Y-98752010D01*
X137781884Y-98785049D01*
X137993084Y-98818500D01*
X137993085Y-98818500D01*
X138206915Y-98818500D01*
X138206916Y-98818500D01*
X138418116Y-98785049D01*
X138621483Y-98718972D01*
X138812009Y-98621894D01*
X138985004Y-98496206D01*
X139136206Y-98345004D01*
X139261894Y-98172009D01*
X139264283Y-98167319D01*
X139312254Y-98116522D01*
X139380074Y-98099724D01*
X139446210Y-98122258D01*
X139482201Y-98163788D01*
X139482832Y-98163402D01*
X139485164Y-98167207D01*
X139485251Y-98167308D01*
X139485376Y-98167554D01*
X139610272Y-98339459D01*
X139610276Y-98339464D01*
X139760535Y-98489723D01*
X139760540Y-98489727D01*
X139932442Y-98614620D01*
X140121782Y-98711095D01*
X140323871Y-98776757D01*
X140390000Y-98787231D01*
X140390000Y-97893012D01*
X140447007Y-97925925D01*
X140574174Y-97960000D01*
X140705826Y-97960000D01*
X140832993Y-97925925D01*
X140890000Y-97893012D01*
X140890000Y-98787230D01*
X140956126Y-98776757D01*
X140956129Y-98776757D01*
X141158217Y-98711095D01*
X141347557Y-98614620D01*
X141519459Y-98489727D01*
X141519464Y-98489723D01*
X141669723Y-98339464D01*
X141669727Y-98339459D01*
X141794620Y-98167558D01*
X141799514Y-98157954D01*
X141847488Y-98107157D01*
X141915308Y-98090361D01*
X141981444Y-98112897D01*
X142020486Y-98157954D01*
X142025379Y-98167558D01*
X142150272Y-98339459D01*
X142150276Y-98339464D01*
X142300535Y-98489723D01*
X142300540Y-98489727D01*
X142472442Y-98614620D01*
X142661782Y-98711095D01*
X142863871Y-98776757D01*
X142930000Y-98787231D01*
X142930000Y-97893012D01*
X142987007Y-97925925D01*
X143114174Y-97960000D01*
X143245826Y-97960000D01*
X143372993Y-97925925D01*
X143430000Y-97893012D01*
X143430000Y-98787230D01*
X143496126Y-98776757D01*
X143496129Y-98776757D01*
X143698217Y-98711095D01*
X143887557Y-98614620D01*
X144059459Y-98489727D01*
X144059464Y-98489723D01*
X144209723Y-98339464D01*
X144209727Y-98339459D01*
X144334619Y-98167560D01*
X144334738Y-98167327D01*
X144334808Y-98167252D01*
X144337168Y-98163402D01*
X144337976Y-98163897D01*
X144382707Y-98116526D01*
X144450526Y-98099723D01*
X144516663Y-98122254D01*
X144555712Y-98167311D01*
X144558105Y-98172008D01*
X144600002Y-98229674D01*
X144683794Y-98345004D01*
X144834996Y-98496206D01*
X145007991Y-98621894D01*
X145094542Y-98665994D01*
X145198516Y-98718972D01*
X145198519Y-98718973D01*
X145300200Y-98752010D01*
X145401884Y-98785049D01*
X145613084Y-98818500D01*
X145613085Y-98818500D01*
X145826915Y-98818500D01*
X145826916Y-98818500D01*
X146038116Y-98785049D01*
X146241483Y-98718972D01*
X146432009Y-98621894D01*
X146605004Y-98496206D01*
X146756206Y-98345004D01*
X146881894Y-98172009D01*
X146978972Y-97981483D01*
X147045049Y-97778116D01*
X147078500Y-97566916D01*
X147078500Y-97353084D01*
X147045049Y-97141884D01*
X146978972Y-96938517D01*
X146978972Y-96938516D01*
X146931639Y-96845621D01*
X146881894Y-96747991D01*
X146756206Y-96574996D01*
X146742555Y-96561345D01*
X149441500Y-96561345D01*
X149441500Y-98358654D01*
X149448011Y-98419202D01*
X149448011Y-98419204D01*
X149479138Y-98502656D01*
X149499111Y-98556204D01*
X149586739Y-98673261D01*
X149703796Y-98760889D01*
X149840799Y-98811989D01*
X149868050Y-98814918D01*
X149901345Y-98818499D01*
X149901362Y-98818500D01*
X151698638Y-98818500D01*
X151698654Y-98818499D01*
X151725692Y-98815591D01*
X151759201Y-98811989D01*
X151896204Y-98760889D01*
X152013261Y-98673261D01*
X152100889Y-98556204D01*
X152145957Y-98435371D01*
X152187827Y-98379442D01*
X152253291Y-98355025D01*
X152321564Y-98369877D01*
X152349818Y-98391028D01*
X152454996Y-98496206D01*
X152627991Y-98621894D01*
X152714542Y-98665994D01*
X152818516Y-98718972D01*
X152818519Y-98718973D01*
X152920200Y-98752010D01*
X153021884Y-98785049D01*
X153233084Y-98818500D01*
X153233085Y-98818500D01*
X153446915Y-98818500D01*
X153446916Y-98818500D01*
X153658116Y-98785049D01*
X153861483Y-98718972D01*
X154052009Y-98621894D01*
X154225004Y-98496206D01*
X154376206Y-98345004D01*
X154501894Y-98172009D01*
X154501896Y-98172004D01*
X154504270Y-98168132D01*
X154556080Y-98121254D01*
X154625009Y-98109829D01*
X154689173Y-98137483D01*
X154715730Y-98168132D01*
X154718103Y-98172005D01*
X154718105Y-98172008D01*
X154718106Y-98172009D01*
X154843794Y-98345004D01*
X154994996Y-98496206D01*
X155167991Y-98621894D01*
X155254542Y-98665994D01*
X155358516Y-98718972D01*
X155358519Y-98718973D01*
X155460200Y-98752010D01*
X155561884Y-98785049D01*
X155773084Y-98818500D01*
X155773085Y-98818500D01*
X155986915Y-98818500D01*
X155986916Y-98818500D01*
X156198116Y-98785049D01*
X156401483Y-98718972D01*
X156592009Y-98621894D01*
X156765004Y-98496206D01*
X156916206Y-98345004D01*
X157041894Y-98172009D01*
X157041896Y-98172004D01*
X157044270Y-98168132D01*
X157096080Y-98121254D01*
X157165009Y-98109829D01*
X157229173Y-98137483D01*
X157255730Y-98168132D01*
X157258103Y-98172005D01*
X157258105Y-98172008D01*
X157258106Y-98172009D01*
X157383794Y-98345004D01*
X157534996Y-98496206D01*
X157707991Y-98621894D01*
X157794542Y-98665994D01*
X157898516Y-98718972D01*
X157898519Y-98718973D01*
X158000200Y-98752010D01*
X158101884Y-98785049D01*
X158313084Y-98818500D01*
X158313085Y-98818500D01*
X158526915Y-98818500D01*
X158526916Y-98818500D01*
X158738116Y-98785049D01*
X158941483Y-98718972D01*
X159132009Y-98621894D01*
X159305004Y-98496206D01*
X159456206Y-98345004D01*
X159581894Y-98172009D01*
X159581896Y-98172004D01*
X159584270Y-98168132D01*
X159636080Y-98121254D01*
X159705009Y-98109829D01*
X159769173Y-98137483D01*
X159795730Y-98168132D01*
X159798103Y-98172005D01*
X159798105Y-98172008D01*
X159798106Y-98172009D01*
X159923794Y-98345004D01*
X160074996Y-98496206D01*
X160247991Y-98621894D01*
X160334542Y-98665994D01*
X160438516Y-98718972D01*
X160438519Y-98718973D01*
X160540200Y-98752010D01*
X160641884Y-98785049D01*
X160853084Y-98818500D01*
X160853085Y-98818500D01*
X161066915Y-98818500D01*
X161066916Y-98818500D01*
X161278116Y-98785049D01*
X161481483Y-98718972D01*
X161672009Y-98621894D01*
X161845004Y-98496206D01*
X161996206Y-98345004D01*
X162121894Y-98172009D01*
X162121896Y-98172004D01*
X162124270Y-98168132D01*
X162176080Y-98121254D01*
X162245009Y-98109829D01*
X162309173Y-98137483D01*
X162335730Y-98168132D01*
X162338103Y-98172005D01*
X162338105Y-98172008D01*
X162338106Y-98172009D01*
X162463794Y-98345004D01*
X162614996Y-98496206D01*
X162787991Y-98621894D01*
X162874542Y-98665994D01*
X162978516Y-98718972D01*
X162978519Y-98718973D01*
X163080200Y-98752010D01*
X163181884Y-98785049D01*
X163393084Y-98818500D01*
X163393085Y-98818500D01*
X163606915Y-98818500D01*
X163606916Y-98818500D01*
X163818116Y-98785049D01*
X164021483Y-98718972D01*
X164212009Y-98621894D01*
X164385004Y-98496206D01*
X164536206Y-98345004D01*
X164661894Y-98172009D01*
X164758972Y-97981483D01*
X164825049Y-97778116D01*
X164858500Y-97566916D01*
X164858500Y-97353084D01*
X164825049Y-97141884D01*
X164758972Y-96938517D01*
X164758972Y-96938516D01*
X164703495Y-96829638D01*
X164661894Y-96747991D01*
X164536206Y-96574996D01*
X164385004Y-96423794D01*
X164212009Y-96298106D01*
X164021483Y-96201027D01*
X164021480Y-96201026D01*
X163818117Y-96134951D01*
X163712516Y-96118225D01*
X163606916Y-96101500D01*
X163393084Y-96101500D01*
X163322684Y-96112650D01*
X163181882Y-96134951D01*
X162978519Y-96201026D01*
X162978516Y-96201027D01*
X162787990Y-96298106D01*
X162614993Y-96423796D01*
X162463796Y-96574993D01*
X162338105Y-96747991D01*
X162335727Y-96751873D01*
X162283914Y-96798748D01*
X162214984Y-96810169D01*
X162150822Y-96782512D01*
X162124273Y-96751873D01*
X162121894Y-96747991D01*
X162121891Y-96747987D01*
X161996206Y-96574996D01*
X161845004Y-96423794D01*
X161672009Y-96298106D01*
X161481483Y-96201027D01*
X161481480Y-96201026D01*
X161278117Y-96134951D01*
X161172516Y-96118225D01*
X161066916Y-96101500D01*
X160853084Y-96101500D01*
X160782684Y-96112650D01*
X160641882Y-96134951D01*
X160438519Y-96201026D01*
X160438516Y-96201027D01*
X160247990Y-96298106D01*
X160074993Y-96423796D01*
X159923796Y-96574993D01*
X159798105Y-96747991D01*
X159795727Y-96751873D01*
X159743914Y-96798748D01*
X159674984Y-96810169D01*
X159610822Y-96782512D01*
X159584273Y-96751873D01*
X159581894Y-96747991D01*
X159581891Y-96747987D01*
X159456206Y-96574996D01*
X159305004Y-96423794D01*
X159132009Y-96298106D01*
X158941483Y-96201027D01*
X158941480Y-96201026D01*
X158738117Y-96134951D01*
X158632516Y-96118225D01*
X158526916Y-96101500D01*
X158313084Y-96101500D01*
X158242684Y-96112650D01*
X158101882Y-96134951D01*
X157898519Y-96201026D01*
X157898516Y-96201027D01*
X157707990Y-96298106D01*
X157534993Y-96423796D01*
X157383796Y-96574993D01*
X157258105Y-96747991D01*
X157255727Y-96751873D01*
X157203914Y-96798748D01*
X157134984Y-96810169D01*
X157070822Y-96782512D01*
X157044273Y-96751873D01*
X157041894Y-96747991D01*
X157041891Y-96747987D01*
X156916206Y-96574996D01*
X156765004Y-96423794D01*
X156592009Y-96298106D01*
X156401483Y-96201027D01*
X156401480Y-96201026D01*
X156198117Y-96134951D01*
X156092516Y-96118225D01*
X155986916Y-96101500D01*
X155773084Y-96101500D01*
X155702684Y-96112650D01*
X155561882Y-96134951D01*
X155358519Y-96201026D01*
X155358516Y-96201027D01*
X155167990Y-96298106D01*
X154994993Y-96423796D01*
X154843796Y-96574993D01*
X154718105Y-96747991D01*
X154715727Y-96751873D01*
X154663914Y-96798748D01*
X154594984Y-96810169D01*
X154530822Y-96782512D01*
X154504273Y-96751873D01*
X154501894Y-96747991D01*
X154501891Y-96747987D01*
X154376206Y-96574996D01*
X154225004Y-96423794D01*
X154052009Y-96298106D01*
X153861483Y-96201027D01*
X153861480Y-96201026D01*
X153658117Y-96134951D01*
X153552516Y-96118225D01*
X153446916Y-96101500D01*
X153233084Y-96101500D01*
X153162684Y-96112650D01*
X153021882Y-96134951D01*
X152818519Y-96201026D01*
X152818516Y-96201027D01*
X152627990Y-96298106D01*
X152454997Y-96423793D01*
X152349818Y-96528972D01*
X152288495Y-96562456D01*
X152218803Y-96557472D01*
X152162870Y-96515600D01*
X152145958Y-96484629D01*
X152100889Y-96363796D01*
X152013261Y-96246739D01*
X151896204Y-96159111D01*
X151895172Y-96158726D01*
X151759203Y-96108011D01*
X151698654Y-96101500D01*
X151698638Y-96101500D01*
X149901362Y-96101500D01*
X149901345Y-96101500D01*
X149840797Y-96108011D01*
X149840795Y-96108011D01*
X149703795Y-96159111D01*
X149586739Y-96246739D01*
X149499111Y-96363795D01*
X149448011Y-96500795D01*
X149448011Y-96500797D01*
X149441500Y-96561345D01*
X146742555Y-96561345D01*
X146605004Y-96423794D01*
X146432009Y-96298106D01*
X146241483Y-96201027D01*
X146241480Y-96201026D01*
X146038117Y-96134951D01*
X145932516Y-96118225D01*
X145826916Y-96101500D01*
X145613084Y-96101500D01*
X145542684Y-96112650D01*
X145401882Y-96134951D01*
X145198519Y-96201026D01*
X145198516Y-96201027D01*
X145007990Y-96298106D01*
X144834993Y-96423796D01*
X144683796Y-96574993D01*
X144558103Y-96747994D01*
X144555709Y-96752693D01*
X144507731Y-96803485D01*
X144439908Y-96820275D01*
X144373775Y-96797732D01*
X144337800Y-96756210D01*
X144337168Y-96756598D01*
X144334829Y-96752781D01*
X144334743Y-96752682D01*
X144334620Y-96752441D01*
X144209727Y-96580540D01*
X144209723Y-96580535D01*
X144059464Y-96430276D01*
X144059459Y-96430272D01*
X143887557Y-96305379D01*
X143698215Y-96208903D01*
X143496124Y-96143241D01*
X143430000Y-96132768D01*
X143430000Y-97026988D01*
X143372993Y-96994075D01*
X143245826Y-96960000D01*
X143114174Y-96960000D01*
X142987007Y-96994075D01*
X142930000Y-97026988D01*
X142930000Y-96132768D01*
X142929999Y-96132768D01*
X142863875Y-96143241D01*
X142661784Y-96208903D01*
X142472442Y-96305379D01*
X142300540Y-96430272D01*
X142300535Y-96430276D01*
X142150276Y-96580535D01*
X142150272Y-96580540D01*
X142025377Y-96752444D01*
X142020484Y-96762048D01*
X141972509Y-96812844D01*
X141904688Y-96829638D01*
X141838553Y-96807100D01*
X141799516Y-96762048D01*
X141794622Y-96752444D01*
X141669727Y-96580540D01*
X141669723Y-96580535D01*
X141519464Y-96430276D01*
X141519459Y-96430272D01*
X141347557Y-96305379D01*
X141158215Y-96208903D01*
X140956124Y-96143241D01*
X140890000Y-96132768D01*
X140890000Y-97026988D01*
X140832993Y-96994075D01*
X140705826Y-96960000D01*
X140574174Y-96960000D01*
X140447007Y-96994075D01*
X140390000Y-97026988D01*
X140390000Y-96132768D01*
X140389999Y-96132768D01*
X140323875Y-96143241D01*
X140121784Y-96208903D01*
X139932442Y-96305379D01*
X139760540Y-96430272D01*
X139760535Y-96430276D01*
X139610276Y-96580535D01*
X139610272Y-96580540D01*
X139485376Y-96752446D01*
X139485374Y-96752448D01*
X139485246Y-96752701D01*
X139485172Y-96752779D01*
X139482832Y-96756598D01*
X139482029Y-96756106D01*
X139437264Y-96803489D01*
X139369441Y-96820274D01*
X139303309Y-96797727D01*
X139264285Y-96752683D01*
X139261895Y-96747992D01*
X139230472Y-96704742D01*
X139136206Y-96574996D01*
X138985004Y-96423794D01*
X138812009Y-96298106D01*
X138621483Y-96201027D01*
X138621480Y-96201026D01*
X138418117Y-96134951D01*
X138312516Y-96118225D01*
X138206916Y-96101500D01*
X137993084Y-96101500D01*
X137922684Y-96112650D01*
X137781882Y-96134951D01*
X137578519Y-96201026D01*
X137578516Y-96201027D01*
X137387990Y-96298106D01*
X137214993Y-96423796D01*
X137063796Y-96574993D01*
X136938105Y-96747991D01*
X136935727Y-96751873D01*
X136883914Y-96798748D01*
X136814984Y-96810169D01*
X136750822Y-96782512D01*
X136724273Y-96751873D01*
X136721894Y-96747991D01*
X136721891Y-96747987D01*
X136596206Y-96574996D01*
X136445004Y-96423794D01*
X136272009Y-96298106D01*
X136081483Y-96201027D01*
X136081480Y-96201026D01*
X135878117Y-96134951D01*
X135772516Y-96118225D01*
X135666916Y-96101500D01*
X135453084Y-96101500D01*
X135382684Y-96112650D01*
X135241882Y-96134951D01*
X135038519Y-96201026D01*
X135038516Y-96201027D01*
X134847990Y-96298106D01*
X134674993Y-96423796D01*
X134523796Y-96574993D01*
X134398105Y-96747991D01*
X134395727Y-96751873D01*
X134343914Y-96798748D01*
X134274984Y-96810169D01*
X134210822Y-96782512D01*
X134184273Y-96751873D01*
X134181894Y-96747991D01*
X134181891Y-96747987D01*
X134056206Y-96574996D01*
X133905004Y-96423794D01*
X133732009Y-96298106D01*
X133541483Y-96201027D01*
X133541480Y-96201026D01*
X133338117Y-96134951D01*
X133232516Y-96118225D01*
X133126916Y-96101500D01*
X132913084Y-96101500D01*
X132842684Y-96112650D01*
X132701882Y-96134951D01*
X132498519Y-96201026D01*
X132498516Y-96201027D01*
X132307990Y-96298106D01*
X132134993Y-96423796D01*
X131983796Y-96574993D01*
X131858105Y-96747991D01*
X131855727Y-96751873D01*
X131803914Y-96798748D01*
X131734984Y-96810169D01*
X131670822Y-96782512D01*
X131644273Y-96751873D01*
X131641894Y-96747991D01*
X131641891Y-96747987D01*
X131516206Y-96574996D01*
X131365004Y-96423794D01*
X131192009Y-96298106D01*
X131001483Y-96201027D01*
X131001480Y-96201026D01*
X130798117Y-96134951D01*
X130692516Y-96118225D01*
X130586916Y-96101500D01*
X130373084Y-96101500D01*
X130302684Y-96112650D01*
X130161882Y-96134951D01*
X129958519Y-96201026D01*
X129958516Y-96201027D01*
X129767990Y-96298106D01*
X129594997Y-96423793D01*
X129489818Y-96528972D01*
X129428495Y-96562456D01*
X129358803Y-96557472D01*
X129302870Y-96515600D01*
X129285958Y-96484629D01*
X129240889Y-96363796D01*
X129153261Y-96246739D01*
X129036204Y-96159111D01*
X129035172Y-96158726D01*
X128899203Y-96108011D01*
X128838654Y-96101500D01*
X128838638Y-96101500D01*
X127041362Y-96101500D01*
X127041345Y-96101500D01*
X126980797Y-96108011D01*
X126980795Y-96108011D01*
X126843795Y-96159111D01*
X126726739Y-96246739D01*
X126639111Y-96363795D01*
X126588011Y-96500795D01*
X126588011Y-96500797D01*
X126581500Y-96561345D01*
X115295416Y-96561345D01*
X115292602Y-96557472D01*
X115190798Y-96417350D01*
X115190794Y-96417345D01*
X115012654Y-96239205D01*
X115012649Y-96239201D01*
X114808848Y-96091132D01*
X114808847Y-96091131D01*
X114808845Y-96091130D01*
X114738747Y-96055413D01*
X114584383Y-95976760D01*
X114344785Y-95898910D01*
X114095962Y-95859500D01*
X113844038Y-95859500D01*
X113719626Y-95879205D01*
X113595214Y-95898910D01*
X113355616Y-95976760D01*
X113131151Y-96091132D01*
X112927350Y-96239201D01*
X112927345Y-96239205D01*
X112749205Y-96417345D01*
X112749201Y-96417350D01*
X112601132Y-96621151D01*
X112486760Y-96845616D01*
X112408910Y-97085214D01*
X112369500Y-97334038D01*
X100075500Y-97334038D01*
X100075500Y-92254038D01*
X164439500Y-92254038D01*
X164439500Y-92505961D01*
X164478910Y-92754785D01*
X164556760Y-92994383D01*
X164671132Y-93218848D01*
X164819201Y-93422649D01*
X164819205Y-93422654D01*
X164997345Y-93600794D01*
X164997350Y-93600798D01*
X165175117Y-93729952D01*
X165201155Y-93748870D01*
X165344184Y-93821747D01*
X165425616Y-93863239D01*
X165425618Y-93863239D01*
X165425621Y-93863241D01*
X165665215Y-93941090D01*
X165914038Y-93980500D01*
X165914039Y-93980500D01*
X166165961Y-93980500D01*
X166165962Y-93980500D01*
X166414785Y-93941090D01*
X166654379Y-93863241D01*
X166878845Y-93748870D01*
X167082656Y-93600793D01*
X167260793Y-93422656D01*
X167408870Y-93218845D01*
X167523241Y-92994379D01*
X167601090Y-92754785D01*
X167640500Y-92505962D01*
X167640500Y-92254038D01*
X167601090Y-92005215D01*
X167523241Y-91765621D01*
X167523239Y-91765618D01*
X167523239Y-91765616D01*
X167481747Y-91684184D01*
X167408870Y-91541155D01*
X167389952Y-91515117D01*
X167260798Y-91337350D01*
X167260794Y-91337345D01*
X167082654Y-91159205D01*
X167082649Y-91159201D01*
X166878848Y-91011132D01*
X166878847Y-91011131D01*
X166878845Y-91011130D01*
X166808747Y-90975413D01*
X166654383Y-90896760D01*
X166414785Y-90818910D01*
X166165962Y-90779500D01*
X165914038Y-90779500D01*
X165789626Y-90799205D01*
X165665214Y-90818910D01*
X165425616Y-90896760D01*
X165201151Y-91011132D01*
X164997350Y-91159201D01*
X164997345Y-91159205D01*
X164819205Y-91337345D01*
X164819201Y-91337350D01*
X164671132Y-91541151D01*
X164556760Y-91765616D01*
X164478910Y-92005214D01*
X164439500Y-92254038D01*
X100075500Y-92254038D01*
X100075500Y-89737682D01*
X128164000Y-89737682D01*
X128164000Y-89942317D01*
X128196009Y-90144417D01*
X128259244Y-90339031D01*
X128352141Y-90521350D01*
X128352147Y-90521359D01*
X128384523Y-90565921D01*
X128384524Y-90565922D01*
X129064000Y-89886446D01*
X129064000Y-89892661D01*
X129091259Y-89994394D01*
X129143920Y-90085606D01*
X129218394Y-90160080D01*
X129309606Y-90212741D01*
X129411339Y-90240000D01*
X129417553Y-90240000D01*
X128738076Y-90919474D01*
X128782650Y-90951859D01*
X128964968Y-91044755D01*
X129159582Y-91107990D01*
X129361683Y-91140000D01*
X129566317Y-91140000D01*
X129768417Y-91107990D01*
X129963031Y-91044755D01*
X130145349Y-90951859D01*
X130189921Y-90919474D01*
X129510447Y-90240000D01*
X129516661Y-90240000D01*
X129618394Y-90212741D01*
X129709606Y-90160080D01*
X129784080Y-90085606D01*
X129836741Y-89994394D01*
X129864000Y-89892661D01*
X129864000Y-89886447D01*
X130551407Y-90573855D01*
X130590148Y-90581994D01*
X130639905Y-90631046D01*
X130653985Y-90685402D01*
X130655040Y-90685346D01*
X130655144Y-90685335D01*
X130655144Y-90685340D01*
X130655323Y-90685331D01*
X130655500Y-90688654D01*
X130662011Y-90749202D01*
X130662011Y-90749204D01*
X130713111Y-90886203D01*
X130713111Y-90886204D01*
X130800739Y-91003261D01*
X130917796Y-91090889D01*
X131054799Y-91141989D01*
X131082050Y-91144918D01*
X131115345Y-91148499D01*
X131115362Y-91148500D01*
X132812638Y-91148500D01*
X132812654Y-91148499D01*
X132839692Y-91145591D01*
X132873201Y-91141989D01*
X133010204Y-91090889D01*
X133127261Y-91003261D01*
X133214889Y-90886204D01*
X133265989Y-90749201D01*
X133269591Y-90715692D01*
X133272499Y-90688654D01*
X133272500Y-90688637D01*
X133272500Y-88991362D01*
X133272499Y-88991345D01*
X136791500Y-88991345D01*
X136791500Y-90688654D01*
X136798011Y-90749202D01*
X136798011Y-90749204D01*
X136849111Y-90886203D01*
X136849111Y-90886204D01*
X136936739Y-91003261D01*
X137053796Y-91090889D01*
X137190799Y-91141989D01*
X137218050Y-91144918D01*
X137251345Y-91148499D01*
X137251362Y-91148500D01*
X138948638Y-91148500D01*
X138948654Y-91148499D01*
X138975692Y-91145591D01*
X139009201Y-91141989D01*
X139146204Y-91090889D01*
X139263261Y-91003261D01*
X139350889Y-90886204D01*
X139401989Y-90749201D01*
X139408500Y-90688638D01*
X139408500Y-90676374D01*
X139412018Y-90661922D01*
X139422363Y-90644034D01*
X139428185Y-90624209D01*
X139439500Y-90614404D01*
X139446999Y-90601439D01*
X139465375Y-90591983D01*
X139480989Y-90578454D01*
X139497255Y-90575578D01*
X139509126Y-90569471D01*
X139516286Y-90570160D01*
X140200000Y-89886446D01*
X140200000Y-89892661D01*
X140227259Y-89994394D01*
X140279920Y-90085606D01*
X140354394Y-90160080D01*
X140445606Y-90212741D01*
X140547339Y-90240000D01*
X140553553Y-90240000D01*
X139874076Y-90919474D01*
X139918650Y-90951859D01*
X140100968Y-91044755D01*
X140295582Y-91107990D01*
X140497683Y-91140000D01*
X140702317Y-91140000D01*
X140904417Y-91107990D01*
X141099031Y-91044755D01*
X141281349Y-90951859D01*
X141325921Y-90919474D01*
X140646447Y-90240000D01*
X140652661Y-90240000D01*
X140754394Y-90212741D01*
X140845606Y-90160080D01*
X140920080Y-90085606D01*
X140972741Y-89994394D01*
X141000000Y-89892661D01*
X141000000Y-89886448D01*
X141679474Y-90565922D01*
X141679474Y-90565921D01*
X141711859Y-90521349D01*
X141804755Y-90339031D01*
X141867990Y-90144417D01*
X141900000Y-89942317D01*
X141900000Y-89737682D01*
X141867990Y-89535582D01*
X141804755Y-89340968D01*
X141711859Y-89158650D01*
X141679474Y-89114077D01*
X141679474Y-89114076D01*
X141000000Y-89793551D01*
X141000000Y-89787339D01*
X140972741Y-89685606D01*
X140920080Y-89594394D01*
X140845606Y-89519920D01*
X140754394Y-89467259D01*
X140652661Y-89440000D01*
X140646446Y-89440000D01*
X141325922Y-88760524D01*
X141325921Y-88760523D01*
X141281359Y-88728147D01*
X141281350Y-88728141D01*
X141099031Y-88635244D01*
X140904417Y-88572009D01*
X140702317Y-88540000D01*
X140497683Y-88540000D01*
X140295582Y-88572009D01*
X140100968Y-88635244D01*
X139918644Y-88728143D01*
X139874077Y-88760523D01*
X139874077Y-88760524D01*
X140553554Y-89440000D01*
X140547339Y-89440000D01*
X140445606Y-89467259D01*
X140354394Y-89519920D01*
X140279920Y-89594394D01*
X140227259Y-89685606D01*
X140200000Y-89787339D01*
X140200000Y-89793553D01*
X139512589Y-89106142D01*
X139473852Y-89098005D01*
X139424095Y-89048954D01*
X139412018Y-89018078D01*
X139408500Y-89003625D01*
X139408500Y-88991362D01*
X139401989Y-88930799D01*
X139350889Y-88793796D01*
X139263261Y-88676739D01*
X139146204Y-88589111D01*
X139009203Y-88538011D01*
X138948654Y-88531500D01*
X138948638Y-88531500D01*
X137251362Y-88531500D01*
X137251345Y-88531500D01*
X137190797Y-88538011D01*
X137190795Y-88538011D01*
X137053795Y-88589111D01*
X136936739Y-88676739D01*
X136849111Y-88793795D01*
X136798011Y-88930795D01*
X136798011Y-88930797D01*
X136791500Y-88991345D01*
X133272499Y-88991345D01*
X133269157Y-88960270D01*
X133265989Y-88930799D01*
X133214889Y-88793796D01*
X133127261Y-88676739D01*
X133010204Y-88589111D01*
X132873203Y-88538011D01*
X132812654Y-88531500D01*
X132812638Y-88531500D01*
X131115362Y-88531500D01*
X131115345Y-88531500D01*
X131054797Y-88538011D01*
X131054795Y-88538011D01*
X130917795Y-88589111D01*
X130800739Y-88676739D01*
X130713111Y-88793795D01*
X130662011Y-88930795D01*
X130662011Y-88930797D01*
X130655500Y-88991345D01*
X130655323Y-88994669D01*
X130655144Y-88994659D01*
X130655144Y-88994665D01*
X130655040Y-88994653D01*
X130653786Y-88994586D01*
X130635815Y-89055789D01*
X130583011Y-89101544D01*
X130550209Y-89107342D01*
X129864000Y-89793551D01*
X129864000Y-89787339D01*
X129836741Y-89685606D01*
X129784080Y-89594394D01*
X129709606Y-89519920D01*
X129618394Y-89467259D01*
X129516661Y-89440000D01*
X129510446Y-89440000D01*
X130189922Y-88760524D01*
X130189921Y-88760523D01*
X130145359Y-88728147D01*
X130145350Y-88728141D01*
X129963031Y-88635244D01*
X129768417Y-88572009D01*
X129566317Y-88540000D01*
X129361683Y-88540000D01*
X129159582Y-88572009D01*
X128964968Y-88635244D01*
X128782644Y-88728143D01*
X128738077Y-88760523D01*
X128738077Y-88760524D01*
X129417554Y-89440000D01*
X129411339Y-89440000D01*
X129309606Y-89467259D01*
X129218394Y-89519920D01*
X129143920Y-89594394D01*
X129091259Y-89685606D01*
X129064000Y-89787339D01*
X129064000Y-89793553D01*
X128384524Y-89114077D01*
X128384523Y-89114077D01*
X128352143Y-89158644D01*
X128259244Y-89340968D01*
X128196009Y-89535582D01*
X128164000Y-89737682D01*
X100075500Y-89737682D01*
X100075500Y-79577019D01*
X131243500Y-79577019D01*
X131243500Y-79782980D01*
X131275719Y-79986408D01*
X131339367Y-80182294D01*
X131384759Y-80271378D01*
X131430602Y-80361350D01*
X131432873Y-80365806D01*
X131553926Y-80532423D01*
X131553930Y-80532428D01*
X131699571Y-80678069D01*
X131699576Y-80678073D01*
X131811616Y-80759474D01*
X131866197Y-80799129D01*
X131983128Y-80858709D01*
X132049705Y-80892632D01*
X132049707Y-80892632D01*
X132049710Y-80892634D01*
X132154707Y-80926749D01*
X132245591Y-80956280D01*
X132347305Y-80972390D01*
X132449019Y-80988500D01*
X132449020Y-80988500D01*
X132654980Y-80988500D01*
X132654981Y-80988500D01*
X132858408Y-80956280D01*
X133054290Y-80892634D01*
X133237803Y-80799129D01*
X133404430Y-80678068D01*
X133550068Y-80532430D01*
X133671129Y-80365803D01*
X133696284Y-80316432D01*
X133744258Y-80265637D01*
X133812078Y-80248841D01*
X133878214Y-80271378D01*
X133917254Y-80316432D01*
X133940141Y-80361350D01*
X133940147Y-80361359D01*
X133972523Y-80405921D01*
X133972524Y-80405922D01*
X134652000Y-79726446D01*
X134652000Y-79732661D01*
X134679259Y-79834394D01*
X134731920Y-79925606D01*
X134806394Y-80000080D01*
X134897606Y-80052741D01*
X134999339Y-80080000D01*
X135005553Y-80080000D01*
X134326076Y-80759474D01*
X134370650Y-80791859D01*
X134552968Y-80884755D01*
X134747582Y-80947990D01*
X134949683Y-80980000D01*
X135154317Y-80980000D01*
X135356417Y-80947990D01*
X135551031Y-80884755D01*
X135733349Y-80791859D01*
X135777921Y-80759474D01*
X135098447Y-80080000D01*
X135104661Y-80080000D01*
X135206394Y-80052741D01*
X135297606Y-80000080D01*
X135372080Y-79925606D01*
X135424741Y-79834394D01*
X135452000Y-79732661D01*
X135452000Y-79726448D01*
X136131474Y-80405922D01*
X136131474Y-80405921D01*
X136163859Y-80361349D01*
X136256755Y-80179031D01*
X136319990Y-79984417D01*
X136352000Y-79782317D01*
X136352000Y-79577682D01*
X136319990Y-79375582D01*
X136256755Y-79180968D01*
X136163859Y-78998650D01*
X136131474Y-78954077D01*
X136131474Y-78954076D01*
X135452000Y-79633551D01*
X135452000Y-79627339D01*
X135424741Y-79525606D01*
X135372080Y-79434394D01*
X135297606Y-79359920D01*
X135206394Y-79307259D01*
X135104661Y-79280000D01*
X135098446Y-79280000D01*
X135777922Y-78600524D01*
X135777921Y-78600523D01*
X135733359Y-78568147D01*
X135733350Y-78568141D01*
X135551031Y-78475244D01*
X135356417Y-78412009D01*
X135154317Y-78380000D01*
X134949683Y-78380000D01*
X134747582Y-78412009D01*
X134552968Y-78475244D01*
X134370644Y-78568143D01*
X134326077Y-78600523D01*
X134326077Y-78600524D01*
X135005554Y-79280000D01*
X134999339Y-79280000D01*
X134897606Y-79307259D01*
X134806394Y-79359920D01*
X134731920Y-79434394D01*
X134679259Y-79525606D01*
X134652000Y-79627339D01*
X134652000Y-79633553D01*
X133972524Y-78954077D01*
X133972523Y-78954077D01*
X133940143Y-78998645D01*
X133940141Y-78998648D01*
X133917253Y-79043568D01*
X133869278Y-79094364D01*
X133801457Y-79111158D01*
X133735322Y-79088620D01*
X133696284Y-79043567D01*
X133671129Y-78994197D01*
X133671127Y-78994194D01*
X133671126Y-78994192D01*
X133550073Y-78827576D01*
X133550069Y-78827571D01*
X133404428Y-78681930D01*
X133404423Y-78681926D01*
X133237806Y-78560873D01*
X133237805Y-78560872D01*
X133237803Y-78560871D01*
X133180496Y-78531671D01*
X133054294Y-78467367D01*
X132858408Y-78403719D01*
X132682794Y-78375905D01*
X132654981Y-78371500D01*
X132449019Y-78371500D01*
X132424550Y-78375375D01*
X132245591Y-78403719D01*
X132049705Y-78467367D01*
X131866193Y-78560873D01*
X131699576Y-78681926D01*
X131699571Y-78681930D01*
X131553930Y-78827571D01*
X131553926Y-78827576D01*
X131432873Y-78994193D01*
X131339367Y-79177705D01*
X131275719Y-79373591D01*
X131243500Y-79577019D01*
X100075500Y-79577019D01*
X100075500Y-75513019D01*
X128663500Y-75513019D01*
X128663500Y-75718980D01*
X128695719Y-75922408D01*
X128759367Y-76118294D01*
X128823671Y-76244496D01*
X128847671Y-76291598D01*
X128852873Y-76301806D01*
X128973926Y-76468423D01*
X128973930Y-76468428D01*
X129119571Y-76614069D01*
X129119576Y-76614073D01*
X129225918Y-76691334D01*
X129286197Y-76735129D01*
X129403128Y-76794709D01*
X129469705Y-76828632D01*
X129469707Y-76828632D01*
X129469710Y-76828634D01*
X129574707Y-76862749D01*
X129665591Y-76892280D01*
X129767305Y-76908390D01*
X129869019Y-76924500D01*
X129869020Y-76924500D01*
X130074980Y-76924500D01*
X130074981Y-76924500D01*
X130278408Y-76892280D01*
X130474290Y-76828634D01*
X130475262Y-76828139D01*
X130506663Y-76812139D01*
X130657803Y-76735129D01*
X130824430Y-76614068D01*
X130970068Y-76468430D01*
X131091129Y-76301803D01*
X131184634Y-76118290D01*
X131248280Y-75922408D01*
X131280500Y-75718981D01*
X131280500Y-75513019D01*
X136283500Y-75513019D01*
X136283500Y-75718980D01*
X136315719Y-75922408D01*
X136379367Y-76118294D01*
X136443671Y-76244496D01*
X136467671Y-76291598D01*
X136472873Y-76301806D01*
X136593926Y-76468423D01*
X136593930Y-76468428D01*
X136739571Y-76614069D01*
X136739576Y-76614073D01*
X136845918Y-76691334D01*
X136906197Y-76735129D01*
X137023128Y-76794709D01*
X137089705Y-76828632D01*
X137089707Y-76828632D01*
X137089710Y-76828634D01*
X137194707Y-76862749D01*
X137285591Y-76892280D01*
X137387305Y-76908390D01*
X137489019Y-76924500D01*
X137489020Y-76924500D01*
X137694980Y-76924500D01*
X137694981Y-76924500D01*
X137898408Y-76892280D01*
X138094290Y-76828634D01*
X138095262Y-76828139D01*
X138126663Y-76812139D01*
X138277803Y-76735129D01*
X138444430Y-76614068D01*
X138590068Y-76468430D01*
X138711129Y-76301803D01*
X138804634Y-76118290D01*
X138868280Y-75922408D01*
X138900500Y-75718981D01*
X138900500Y-75513019D01*
X138872669Y-75337300D01*
X138868280Y-75309591D01*
X138838749Y-75218707D01*
X138804634Y-75113710D01*
X138804632Y-75113707D01*
X138804632Y-75113705D01*
X138740786Y-74988402D01*
X138711129Y-74930197D01*
X138636980Y-74828139D01*
X138590073Y-74763576D01*
X138590069Y-74763571D01*
X138444428Y-74617930D01*
X138444423Y-74617926D01*
X138277806Y-74496873D01*
X138277805Y-74496872D01*
X138277803Y-74496871D01*
X138220496Y-74467671D01*
X138094294Y-74403367D01*
X137898408Y-74339719D01*
X137722794Y-74311905D01*
X137694981Y-74307500D01*
X137489019Y-74307500D01*
X137464550Y-74311375D01*
X137285591Y-74339719D01*
X137089705Y-74403367D01*
X136906193Y-74496873D01*
X136739576Y-74617926D01*
X136739571Y-74617930D01*
X136593930Y-74763571D01*
X136593926Y-74763576D01*
X136472873Y-74930193D01*
X136379367Y-75113705D01*
X136315719Y-75309591D01*
X136283500Y-75513019D01*
X131280500Y-75513019D01*
X131252669Y-75337300D01*
X131248280Y-75309591D01*
X131218749Y-75218707D01*
X131184634Y-75113710D01*
X131184632Y-75113707D01*
X131184632Y-75113705D01*
X131120786Y-74988402D01*
X131091129Y-74930197D01*
X131016980Y-74828139D01*
X130970073Y-74763576D01*
X130970069Y-74763571D01*
X130824428Y-74617930D01*
X130824423Y-74617926D01*
X130657806Y-74496873D01*
X130657805Y-74496872D01*
X130657803Y-74496871D01*
X130600496Y-74467671D01*
X130474294Y-74403367D01*
X130278408Y-74339719D01*
X130102794Y-74311905D01*
X130074981Y-74307500D01*
X129869019Y-74307500D01*
X129844550Y-74311375D01*
X129665591Y-74339719D01*
X129469705Y-74403367D01*
X129286193Y-74496873D01*
X129119576Y-74617926D01*
X129119571Y-74617930D01*
X128973930Y-74763571D01*
X128973926Y-74763576D01*
X128852873Y-74930193D01*
X128759367Y-75113705D01*
X128695719Y-75309591D01*
X128663500Y-75513019D01*
X100075500Y-75513019D01*
X100075500Y-73548948D01*
X141921500Y-73548948D01*
X141921500Y-73747051D01*
X141952487Y-73942700D01*
X142013703Y-74131101D01*
X142103584Y-74307500D01*
X142103634Y-74307598D01*
X142220070Y-74467858D01*
X142220072Y-74467860D01*
X142312531Y-74560319D01*
X142346016Y-74621642D01*
X142341032Y-74691334D01*
X142312531Y-74735681D01*
X142220072Y-74828139D01*
X142220072Y-74828140D01*
X142220070Y-74828142D01*
X142170065Y-74896967D01*
X142103634Y-74988401D01*
X142013703Y-75164898D01*
X141952487Y-75353299D01*
X141921500Y-75548948D01*
X141921500Y-75747051D01*
X141952487Y-75942700D01*
X142013703Y-76131101D01*
X142100681Y-76301803D01*
X142103634Y-76307598D01*
X142220070Y-76467858D01*
X142220072Y-76467860D01*
X142312531Y-76560319D01*
X142346016Y-76621642D01*
X142341032Y-76691334D01*
X142312531Y-76735681D01*
X142220072Y-76828139D01*
X142220072Y-76828140D01*
X142220070Y-76828142D01*
X142219713Y-76828634D01*
X142103634Y-76988401D01*
X142013703Y-77164898D01*
X141952487Y-77353299D01*
X141921500Y-77548948D01*
X141921500Y-77747051D01*
X141952487Y-77942700D01*
X142013703Y-78131101D01*
X142103634Y-78307598D01*
X142220070Y-78467858D01*
X142360142Y-78607930D01*
X142461994Y-78681930D01*
X142520403Y-78724367D01*
X142572338Y-78750829D01*
X142685413Y-78808443D01*
X142716798Y-78831246D01*
X143091414Y-79205862D01*
X143006306Y-79228667D01*
X142903694Y-79287910D01*
X142819910Y-79371694D01*
X142760667Y-79474306D01*
X142737862Y-79559413D01*
X141945277Y-78766829D01*
X141936402Y-78790623D01*
X141936401Y-78790627D01*
X141930000Y-78850155D01*
X141930000Y-80445844D01*
X141936401Y-80505375D01*
X141945277Y-80529170D01*
X142737862Y-79736585D01*
X142760667Y-79821694D01*
X142819910Y-79924306D01*
X142903694Y-80008090D01*
X143006306Y-80067333D01*
X143091413Y-80090137D01*
X142298829Y-80882720D01*
X142298829Y-80882722D01*
X142322622Y-80891597D01*
X142322623Y-80891598D01*
X142382155Y-80897999D01*
X142382172Y-80898000D01*
X143977828Y-80898000D01*
X143977844Y-80897999D01*
X144037372Y-80891598D01*
X144061169Y-80882721D01*
X143268585Y-80090137D01*
X143353694Y-80067333D01*
X143456306Y-80008090D01*
X143540090Y-79924306D01*
X143599333Y-79821694D01*
X143622137Y-79736585D01*
X144414721Y-80529169D01*
X144423598Y-80505372D01*
X144429999Y-80445844D01*
X144430000Y-80445827D01*
X144430000Y-78850172D01*
X144429999Y-78850166D01*
X144429348Y-78844104D01*
X144429348Y-78844102D01*
X144423597Y-78790622D01*
X144414722Y-78766829D01*
X144414720Y-78766829D01*
X143622137Y-79559413D01*
X143599333Y-79474306D01*
X143540090Y-79371694D01*
X143456306Y-79287910D01*
X143353694Y-79228667D01*
X143268584Y-79205861D01*
X143643197Y-78831248D01*
X143674582Y-78808445D01*
X143839598Y-78724366D01*
X143999858Y-78607930D01*
X144139930Y-78467858D01*
X144256366Y-78307598D01*
X144346298Y-78131097D01*
X144407512Y-77942700D01*
X144410046Y-77926700D01*
X144438500Y-77747051D01*
X144438500Y-77548948D01*
X144407512Y-77353299D01*
X144346296Y-77164898D01*
X144256365Y-76988401D01*
X144244741Y-76972402D01*
X144139930Y-76828142D01*
X144047469Y-76735681D01*
X144013984Y-76674358D01*
X144018968Y-76604666D01*
X144047469Y-76560319D01*
X144063469Y-76544319D01*
X144139930Y-76467858D01*
X144256366Y-76307598D01*
X144346298Y-76131097D01*
X144407512Y-75942700D01*
X144410726Y-75922408D01*
X144438500Y-75747051D01*
X144438500Y-75548948D01*
X144407512Y-75353299D01*
X144346296Y-75164898D01*
X144256365Y-74988401D01*
X144244741Y-74972402D01*
X144139930Y-74828142D01*
X144047469Y-74735681D01*
X144013984Y-74674358D01*
X144018968Y-74604666D01*
X144047469Y-74560319D01*
X144063469Y-74544319D01*
X144139930Y-74467858D01*
X144256366Y-74307598D01*
X144346298Y-74131097D01*
X144407512Y-73942700D01*
X144410046Y-73926700D01*
X144438500Y-73747051D01*
X144438500Y-73548951D01*
X144438268Y-73547487D01*
X144438268Y-73547484D01*
X144438267Y-73547480D01*
X144435965Y-73532948D01*
X154113500Y-73532948D01*
X154113500Y-73731051D01*
X154144487Y-73926700D01*
X154205703Y-74115101D01*
X154213856Y-74131101D01*
X154295634Y-74291598D01*
X154412070Y-74451858D01*
X154412072Y-74451860D01*
X154504531Y-74544319D01*
X154538016Y-74605642D01*
X154533032Y-74675334D01*
X154504531Y-74719681D01*
X154412072Y-74812139D01*
X154412072Y-74812140D01*
X154412070Y-74812142D01*
X154362065Y-74880967D01*
X154295634Y-74972401D01*
X154205703Y-75148898D01*
X154144487Y-75337299D01*
X154113500Y-75532948D01*
X154113500Y-75731051D01*
X154144487Y-75926700D01*
X154205703Y-76115101D01*
X154213856Y-76131101D01*
X154295634Y-76291598D01*
X154412070Y-76451858D01*
X154412072Y-76451860D01*
X154504531Y-76544319D01*
X154538016Y-76605642D01*
X154533032Y-76675334D01*
X154504531Y-76719681D01*
X154412072Y-76812139D01*
X154412072Y-76812140D01*
X154412070Y-76812142D01*
X154400088Y-76828634D01*
X154295634Y-76972401D01*
X154205703Y-77148898D01*
X154144487Y-77337299D01*
X154113500Y-77532948D01*
X154113500Y-77731051D01*
X154144487Y-77926700D01*
X154205703Y-78115101D01*
X154213856Y-78131101D01*
X154295634Y-78291598D01*
X154412070Y-78451858D01*
X154552142Y-78591930D01*
X154672337Y-78679257D01*
X154712403Y-78708367D01*
X154792707Y-78749283D01*
X154877413Y-78792443D01*
X154908798Y-78815246D01*
X155283414Y-79189862D01*
X155198306Y-79212667D01*
X155095694Y-79271910D01*
X155011910Y-79355694D01*
X154952667Y-79458306D01*
X154929862Y-79543413D01*
X154137277Y-78750829D01*
X154128402Y-78774623D01*
X154128401Y-78774627D01*
X154122000Y-78834155D01*
X154122000Y-80429844D01*
X154128401Y-80489375D01*
X154137277Y-80513170D01*
X154929862Y-79720585D01*
X154952667Y-79805694D01*
X155011910Y-79908306D01*
X155095694Y-79992090D01*
X155198306Y-80051333D01*
X155283413Y-80074137D01*
X154490829Y-80866720D01*
X154490829Y-80866722D01*
X154514622Y-80875597D01*
X154514623Y-80875598D01*
X154574155Y-80881999D01*
X154574172Y-80882000D01*
X156169828Y-80882000D01*
X156169844Y-80881999D01*
X156229372Y-80875598D01*
X156253169Y-80866721D01*
X155460585Y-80074137D01*
X155545694Y-80051333D01*
X155648306Y-79992090D01*
X155732090Y-79908306D01*
X155791333Y-79805694D01*
X155814137Y-79720585D01*
X156606721Y-80513169D01*
X156615598Y-80489372D01*
X156621999Y-80429844D01*
X156622000Y-80429827D01*
X156622000Y-78834172D01*
X156621999Y-78834155D01*
X156615598Y-78774623D01*
X156615597Y-78774622D01*
X156606722Y-78750829D01*
X156606720Y-78750829D01*
X155814137Y-79543413D01*
X155791333Y-79458306D01*
X155732090Y-79355694D01*
X155648306Y-79271910D01*
X155545694Y-79212667D01*
X155460584Y-79189861D01*
X155835197Y-78815248D01*
X155866582Y-78792445D01*
X156031598Y-78708366D01*
X156191858Y-78591930D01*
X156331930Y-78451858D01*
X156448366Y-78291598D01*
X156538298Y-78115097D01*
X156599512Y-77926700D01*
X156630500Y-77731051D01*
X156630500Y-77532948D01*
X156599512Y-77337299D01*
X156571110Y-77249888D01*
X156538298Y-77148903D01*
X156538296Y-77148900D01*
X156538296Y-77148898D01*
X156448365Y-76972401D01*
X156331930Y-76812142D01*
X156239469Y-76719681D01*
X156205984Y-76658358D01*
X156210968Y-76588666D01*
X156239469Y-76544319D01*
X156331930Y-76451858D01*
X156448366Y-76291598D01*
X156538298Y-76115097D01*
X156599512Y-75926700D01*
X156600192Y-75922408D01*
X156630500Y-75731051D01*
X156630500Y-75532948D01*
X156599512Y-75337299D01*
X156571110Y-75249888D01*
X156538298Y-75148903D01*
X156538296Y-75148900D01*
X156538296Y-75148898D01*
X156448365Y-74972401D01*
X156417699Y-74930193D01*
X156331930Y-74812142D01*
X156239469Y-74719681D01*
X156205984Y-74658358D01*
X156210968Y-74588666D01*
X156239469Y-74544319D01*
X156331930Y-74451858D01*
X156448366Y-74291598D01*
X156538298Y-74115097D01*
X156599512Y-73926700D01*
X156630500Y-73731051D01*
X156630500Y-73532948D01*
X156599512Y-73337299D01*
X156548118Y-73179126D01*
X156538298Y-73148903D01*
X156538296Y-73148900D01*
X156538296Y-73148898D01*
X156448365Y-72972401D01*
X156331930Y-72812142D01*
X156191858Y-72672070D01*
X156031598Y-72555634D01*
X155855101Y-72465703D01*
X155666700Y-72404487D01*
X155471051Y-72373500D01*
X155471046Y-72373500D01*
X155272954Y-72373500D01*
X155272949Y-72373500D01*
X155077299Y-72404487D01*
X154888898Y-72465703D01*
X154712401Y-72555634D01*
X154620967Y-72622065D01*
X154552142Y-72672070D01*
X154552140Y-72672072D01*
X154552139Y-72672072D01*
X154412072Y-72812139D01*
X154412072Y-72812140D01*
X154412070Y-72812142D01*
X154362065Y-72880967D01*
X154295634Y-72972401D01*
X154205703Y-73148898D01*
X154144487Y-73337299D01*
X154113500Y-73532948D01*
X144435965Y-73532948D01*
X144409919Y-73368500D01*
X144407512Y-73353300D01*
X144346298Y-73164903D01*
X144346296Y-73164900D01*
X144346296Y-73164898D01*
X144256365Y-72988401D01*
X144244741Y-72972402D01*
X144139930Y-72828142D01*
X143999858Y-72688070D01*
X143839598Y-72571634D01*
X143821267Y-72562294D01*
X143663101Y-72481703D01*
X143474700Y-72420487D01*
X143279051Y-72389500D01*
X143279046Y-72389500D01*
X143080954Y-72389500D01*
X143080949Y-72389500D01*
X142885299Y-72420487D01*
X142696898Y-72481703D01*
X142520401Y-72571634D01*
X142428967Y-72638065D01*
X142360142Y-72688070D01*
X142360140Y-72688072D01*
X142360139Y-72688072D01*
X142220072Y-72828139D01*
X142220072Y-72828140D01*
X142220070Y-72828142D01*
X142170065Y-72896967D01*
X142103634Y-72988401D01*
X142013703Y-73164898D01*
X141952487Y-73353299D01*
X141921500Y-73548948D01*
X100075500Y-73548948D01*
X100075500Y-71957019D01*
X128701500Y-71957019D01*
X128701500Y-72162980D01*
X128733719Y-72366408D01*
X128797367Y-72562294D01*
X128890873Y-72745806D01*
X129011926Y-72912423D01*
X129011930Y-72912428D01*
X129157571Y-73058069D01*
X129157576Y-73058073D01*
X129282587Y-73148898D01*
X129324197Y-73179129D01*
X129441128Y-73238709D01*
X129507705Y-73272632D01*
X129507707Y-73272632D01*
X129507710Y-73272634D01*
X129612707Y-73306749D01*
X129703591Y-73336280D01*
X129805305Y-73352390D01*
X129907019Y-73368500D01*
X129907020Y-73368500D01*
X130112980Y-73368500D01*
X130112981Y-73368500D01*
X130316408Y-73336280D01*
X130512290Y-73272634D01*
X130695803Y-73179129D01*
X130862430Y-73058068D01*
X131008068Y-72912430D01*
X131129129Y-72745803D01*
X131222634Y-72562290D01*
X131286280Y-72366408D01*
X131318500Y-72162981D01*
X131318500Y-71957019D01*
X136321500Y-71957019D01*
X136321500Y-72162980D01*
X136353719Y-72366408D01*
X136417367Y-72562294D01*
X136510873Y-72745806D01*
X136631926Y-72912423D01*
X136631930Y-72912428D01*
X136777571Y-73058069D01*
X136777576Y-73058073D01*
X136902587Y-73148898D01*
X136944197Y-73179129D01*
X137061128Y-73238709D01*
X137127705Y-73272632D01*
X137127707Y-73272632D01*
X137127710Y-73272634D01*
X137232707Y-73306749D01*
X137323591Y-73336280D01*
X137425305Y-73352390D01*
X137527019Y-73368500D01*
X137527020Y-73368500D01*
X137732980Y-73368500D01*
X137732981Y-73368500D01*
X137936408Y-73336280D01*
X138132290Y-73272634D01*
X138315803Y-73179129D01*
X138482430Y-73058068D01*
X138628068Y-72912430D01*
X138749129Y-72745803D01*
X138842634Y-72562290D01*
X138906280Y-72366408D01*
X138938500Y-72162981D01*
X138938500Y-71957019D01*
X138906280Y-71753592D01*
X138842634Y-71557710D01*
X138842632Y-71557707D01*
X138842632Y-71557705D01*
X138808709Y-71491128D01*
X138749129Y-71374197D01*
X138733661Y-71352908D01*
X138628073Y-71207576D01*
X138628069Y-71207571D01*
X138482428Y-71061930D01*
X138482423Y-71061926D01*
X138315806Y-70940873D01*
X138315805Y-70940872D01*
X138315803Y-70940871D01*
X138258496Y-70911671D01*
X138132294Y-70847367D01*
X137936408Y-70783719D01*
X137760794Y-70755905D01*
X137732981Y-70751500D01*
X137527019Y-70751500D01*
X137502550Y-70755375D01*
X137323591Y-70783719D01*
X137127705Y-70847367D01*
X136944193Y-70940873D01*
X136777576Y-71061926D01*
X136777571Y-71061930D01*
X136631930Y-71207571D01*
X136631926Y-71207576D01*
X136510873Y-71374193D01*
X136417367Y-71557705D01*
X136353719Y-71753591D01*
X136321500Y-71957019D01*
X131318500Y-71957019D01*
X131286280Y-71753592D01*
X131222634Y-71557710D01*
X131222632Y-71557707D01*
X131222632Y-71557705D01*
X131188709Y-71491128D01*
X131129129Y-71374197D01*
X131113661Y-71352908D01*
X131008073Y-71207576D01*
X131008069Y-71207571D01*
X130862428Y-71061930D01*
X130862423Y-71061926D01*
X130695806Y-70940873D01*
X130695805Y-70940872D01*
X130695803Y-70940871D01*
X130638496Y-70911671D01*
X130512294Y-70847367D01*
X130316408Y-70783719D01*
X130140794Y-70755905D01*
X130112981Y-70751500D01*
X129907019Y-70751500D01*
X129882550Y-70755375D01*
X129703591Y-70783719D01*
X129507705Y-70847367D01*
X129324193Y-70940873D01*
X129157576Y-71061926D01*
X129157571Y-71061930D01*
X129011930Y-71207571D01*
X129011926Y-71207576D01*
X128890873Y-71374193D01*
X128797367Y-71557705D01*
X128733719Y-71753591D01*
X128701500Y-71957019D01*
X100075500Y-71957019D01*
X100075500Y-68877019D01*
X147441500Y-68877019D01*
X147441500Y-69082980D01*
X147473719Y-69286408D01*
X147537367Y-69482294D01*
X147582759Y-69571378D01*
X147628602Y-69661350D01*
X147630873Y-69665806D01*
X147751926Y-69832423D01*
X147751930Y-69832428D01*
X147897571Y-69978069D01*
X147897576Y-69978073D01*
X148009616Y-70059474D01*
X148064197Y-70099129D01*
X148181128Y-70158709D01*
X148247705Y-70192632D01*
X148247707Y-70192632D01*
X148247710Y-70192634D01*
X148352707Y-70226749D01*
X148443591Y-70256280D01*
X148545305Y-70272390D01*
X148647019Y-70288500D01*
X148647020Y-70288500D01*
X148852980Y-70288500D01*
X148852981Y-70288500D01*
X149056408Y-70256280D01*
X149252290Y-70192634D01*
X149435803Y-70099129D01*
X149602430Y-69978068D01*
X149748068Y-69832430D01*
X149869129Y-69665803D01*
X149894284Y-69616432D01*
X149942258Y-69565637D01*
X150010078Y-69548841D01*
X150076214Y-69571378D01*
X150115254Y-69616432D01*
X150138141Y-69661350D01*
X150138147Y-69661359D01*
X150170523Y-69705921D01*
X150170524Y-69705922D01*
X150850000Y-69026446D01*
X150850000Y-69032661D01*
X150877259Y-69134394D01*
X150929920Y-69225606D01*
X151004394Y-69300080D01*
X151095606Y-69352741D01*
X151197339Y-69380000D01*
X151203553Y-69380000D01*
X150524076Y-70059474D01*
X150568650Y-70091859D01*
X150750968Y-70184755D01*
X150945582Y-70247990D01*
X151147683Y-70280000D01*
X151352317Y-70280000D01*
X151554417Y-70247990D01*
X151749031Y-70184755D01*
X151931349Y-70091859D01*
X151975921Y-70059474D01*
X151296447Y-69380000D01*
X151302661Y-69380000D01*
X151404394Y-69352741D01*
X151495606Y-69300080D01*
X151570080Y-69225606D01*
X151622741Y-69134394D01*
X151650000Y-69032661D01*
X151650000Y-69026447D01*
X152329474Y-69705921D01*
X152361859Y-69661349D01*
X152454755Y-69479031D01*
X152517990Y-69284417D01*
X152550000Y-69082317D01*
X152550000Y-68877682D01*
X152517990Y-68675582D01*
X152454755Y-68480968D01*
X152361859Y-68298650D01*
X152329474Y-68254077D01*
X152329474Y-68254076D01*
X151650000Y-68933551D01*
X151650000Y-68927339D01*
X151622741Y-68825606D01*
X151570080Y-68734394D01*
X151495606Y-68659920D01*
X151404394Y-68607259D01*
X151302661Y-68580000D01*
X151296446Y-68580000D01*
X151975922Y-67900524D01*
X151975921Y-67900523D01*
X151931359Y-67868147D01*
X151931350Y-67868141D01*
X151749031Y-67775244D01*
X151554417Y-67712009D01*
X151352317Y-67680000D01*
X151147683Y-67680000D01*
X150945582Y-67712009D01*
X150750968Y-67775244D01*
X150568644Y-67868143D01*
X150524077Y-67900523D01*
X150524077Y-67900524D01*
X151203554Y-68580000D01*
X151197339Y-68580000D01*
X151095606Y-68607259D01*
X151004394Y-68659920D01*
X150929920Y-68734394D01*
X150877259Y-68825606D01*
X150850000Y-68927339D01*
X150850000Y-68933553D01*
X150170524Y-68254077D01*
X150170523Y-68254077D01*
X150138143Y-68298645D01*
X150138141Y-68298648D01*
X150115253Y-68343568D01*
X150067278Y-68394364D01*
X149999457Y-68411158D01*
X149933322Y-68388620D01*
X149894284Y-68343567D01*
X149869129Y-68294197D01*
X149869127Y-68294194D01*
X149869126Y-68294192D01*
X149748073Y-68127576D01*
X149748069Y-68127571D01*
X149602428Y-67981930D01*
X149602423Y-67981926D01*
X149435806Y-67860873D01*
X149435805Y-67860872D01*
X149435803Y-67860871D01*
X149378496Y-67831671D01*
X149252294Y-67767367D01*
X149056408Y-67703719D01*
X148880794Y-67675905D01*
X148852981Y-67671500D01*
X148647019Y-67671500D01*
X148622550Y-67675375D01*
X148443591Y-67703719D01*
X148247705Y-67767367D01*
X148064193Y-67860873D01*
X147897576Y-67981926D01*
X147897571Y-67981930D01*
X147751930Y-68127571D01*
X147751926Y-68127576D01*
X147630873Y-68294193D01*
X147537367Y-68477705D01*
X147473719Y-68673591D01*
X147441500Y-68877019D01*
X100075500Y-68877019D01*
X100075500Y-66877019D01*
X132673500Y-66877019D01*
X132673500Y-67082980D01*
X132705719Y-67286408D01*
X132769367Y-67482294D01*
X132862873Y-67665806D01*
X132983926Y-67832423D01*
X132983930Y-67832428D01*
X133129571Y-67978069D01*
X133129576Y-67978073D01*
X133134888Y-67981932D01*
X133296197Y-68099129D01*
X133413128Y-68158709D01*
X133479705Y-68192632D01*
X133479707Y-68192632D01*
X133479710Y-68192634D01*
X133584707Y-68226749D01*
X133675591Y-68256280D01*
X133777305Y-68272390D01*
X133879019Y-68288500D01*
X133879020Y-68288500D01*
X134084980Y-68288500D01*
X134084981Y-68288500D01*
X134288408Y-68256280D01*
X134484290Y-68192634D01*
X134667803Y-68099129D01*
X134834430Y-67978068D01*
X134980068Y-67832430D01*
X135101129Y-67665803D01*
X135194634Y-67482290D01*
X135258280Y-67286408D01*
X135290500Y-67082981D01*
X135290500Y-66877019D01*
X140293500Y-66877019D01*
X140293500Y-67082980D01*
X140325719Y-67286408D01*
X140389367Y-67482294D01*
X140482873Y-67665806D01*
X140603926Y-67832423D01*
X140603930Y-67832428D01*
X140749571Y-67978069D01*
X140749576Y-67978073D01*
X140754888Y-67981932D01*
X140916197Y-68099129D01*
X141033128Y-68158709D01*
X141099705Y-68192632D01*
X141099707Y-68192632D01*
X141099710Y-68192634D01*
X141204707Y-68226749D01*
X141295591Y-68256280D01*
X141397305Y-68272390D01*
X141499019Y-68288500D01*
X141499020Y-68288500D01*
X141704980Y-68288500D01*
X141704981Y-68288500D01*
X141908408Y-68256280D01*
X142104290Y-68192634D01*
X142287803Y-68099129D01*
X142454430Y-67978068D01*
X142600068Y-67832430D01*
X142721129Y-67665803D01*
X142814634Y-67482290D01*
X142878280Y-67286408D01*
X142910500Y-67082981D01*
X142910500Y-66877019D01*
X142878280Y-66673592D01*
X142814634Y-66477710D01*
X142814632Y-66477707D01*
X142814632Y-66477705D01*
X142780709Y-66411128D01*
X142721129Y-66294197D01*
X142705661Y-66272908D01*
X142600073Y-66127576D01*
X142600069Y-66127571D01*
X142454428Y-65981930D01*
X142454423Y-65981926D01*
X142287806Y-65860873D01*
X142287805Y-65860872D01*
X142287803Y-65860871D01*
X142230496Y-65831671D01*
X142104294Y-65767367D01*
X141908408Y-65703719D01*
X141732794Y-65675905D01*
X141704981Y-65671500D01*
X141499019Y-65671500D01*
X141474550Y-65675375D01*
X141295591Y-65703719D01*
X141099705Y-65767367D01*
X140916193Y-65860873D01*
X140749576Y-65981926D01*
X140749571Y-65981930D01*
X140603930Y-66127571D01*
X140603926Y-66127576D01*
X140482873Y-66294193D01*
X140389367Y-66477705D01*
X140325719Y-66673591D01*
X140293500Y-66877019D01*
X135290500Y-66877019D01*
X135258280Y-66673592D01*
X135194634Y-66477710D01*
X135194632Y-66477707D01*
X135194632Y-66477705D01*
X135160709Y-66411128D01*
X135101129Y-66294197D01*
X135085661Y-66272908D01*
X134980073Y-66127576D01*
X134980069Y-66127571D01*
X134834428Y-65981930D01*
X134834423Y-65981926D01*
X134667806Y-65860873D01*
X134667805Y-65860872D01*
X134667803Y-65860871D01*
X134610496Y-65831671D01*
X134484294Y-65767367D01*
X134288408Y-65703719D01*
X134112794Y-65675905D01*
X134084981Y-65671500D01*
X133879019Y-65671500D01*
X133854550Y-65675375D01*
X133675591Y-65703719D01*
X133479705Y-65767367D01*
X133296193Y-65860873D01*
X133129576Y-65981926D01*
X133129571Y-65981930D01*
X132983930Y-66127571D01*
X132983926Y-66127576D01*
X132862873Y-66294193D01*
X132769367Y-66477705D01*
X132705719Y-66673591D01*
X132673500Y-66877019D01*
X100075500Y-66877019D01*
X100075500Y-63410000D01*
X132713391Y-63410000D01*
X133674314Y-63410000D01*
X133669920Y-63414394D01*
X133617259Y-63505606D01*
X133590000Y-63607339D01*
X133590000Y-63712661D01*
X133617259Y-63814394D01*
X133669920Y-63905606D01*
X133674314Y-63910000D01*
X132713391Y-63910000D01*
X132722009Y-63964413D01*
X132785244Y-64159029D01*
X132878140Y-64341349D01*
X132998417Y-64506894D01*
X132998417Y-64506895D01*
X133143104Y-64651582D01*
X133308650Y-64771859D01*
X133490968Y-64864754D01*
X133685578Y-64927988D01*
X133740000Y-64936607D01*
X133740000Y-63975686D01*
X133744394Y-63980080D01*
X133835606Y-64032741D01*
X133937339Y-64060000D01*
X134042661Y-64060000D01*
X134144394Y-64032741D01*
X134235606Y-63980080D01*
X134240000Y-63975686D01*
X134240000Y-64936606D01*
X134294421Y-64927988D01*
X134489031Y-64864754D01*
X134671349Y-64771859D01*
X134836894Y-64651582D01*
X134836895Y-64651582D01*
X134981582Y-64506895D01*
X134981582Y-64506894D01*
X135101859Y-64341349D01*
X135194755Y-64159029D01*
X135257990Y-63964413D01*
X135266609Y-63910000D01*
X134305686Y-63910000D01*
X134310080Y-63905606D01*
X134362741Y-63814394D01*
X134390000Y-63712661D01*
X134390000Y-63607339D01*
X134376517Y-63557019D01*
X140301500Y-63557019D01*
X140301500Y-63762980D01*
X140333719Y-63966408D01*
X140397367Y-64162294D01*
X140490873Y-64345806D01*
X140611926Y-64512423D01*
X140611930Y-64512428D01*
X140757571Y-64658069D01*
X140757576Y-64658073D01*
X140902908Y-64763661D01*
X140924197Y-64779129D01*
X141041128Y-64838709D01*
X141107705Y-64872632D01*
X141107707Y-64872632D01*
X141107710Y-64872634D01*
X141212707Y-64906749D01*
X141303591Y-64936280D01*
X141405305Y-64952390D01*
X141507019Y-64968500D01*
X141507020Y-64968500D01*
X141712980Y-64968500D01*
X141712981Y-64968500D01*
X141916408Y-64936280D01*
X142112290Y-64872634D01*
X142295803Y-64779129D01*
X142462430Y-64658068D01*
X142608068Y-64512430D01*
X142729129Y-64345803D01*
X142822634Y-64162290D01*
X142886280Y-63966408D01*
X142918500Y-63762981D01*
X142918500Y-63557019D01*
X142886280Y-63353592D01*
X142822634Y-63157710D01*
X142822632Y-63157707D01*
X142822632Y-63157705D01*
X142778519Y-63071130D01*
X142729129Y-62974197D01*
X142664541Y-62885299D01*
X142608073Y-62807576D01*
X142608069Y-62807571D01*
X142462428Y-62661930D01*
X142462423Y-62661926D01*
X142295806Y-62540873D01*
X142295805Y-62540872D01*
X142295803Y-62540871D01*
X142238496Y-62511671D01*
X142112294Y-62447367D01*
X141916408Y-62383719D01*
X141740794Y-62355905D01*
X141712981Y-62351500D01*
X141507019Y-62351500D01*
X141482550Y-62355375D01*
X141303591Y-62383719D01*
X141107705Y-62447367D01*
X140924193Y-62540873D01*
X140757576Y-62661926D01*
X140757571Y-62661930D01*
X140611930Y-62807571D01*
X140611926Y-62807576D01*
X140490873Y-62974193D01*
X140397367Y-63157705D01*
X140333719Y-63353591D01*
X140301500Y-63557019D01*
X134376517Y-63557019D01*
X134362741Y-63505606D01*
X134310080Y-63414394D01*
X134305686Y-63410000D01*
X135266609Y-63410000D01*
X135257990Y-63355586D01*
X135194755Y-63160970D01*
X135101859Y-62978650D01*
X134981582Y-62813105D01*
X134981582Y-62813104D01*
X134836895Y-62668417D01*
X134671349Y-62548140D01*
X134489029Y-62455244D01*
X134294413Y-62392009D01*
X134240000Y-62383390D01*
X134240000Y-63344314D01*
X134235606Y-63339920D01*
X134144394Y-63287259D01*
X134042661Y-63260000D01*
X133937339Y-63260000D01*
X133835606Y-63287259D01*
X133744394Y-63339920D01*
X133740000Y-63344314D01*
X133740000Y-62383390D01*
X133685586Y-62392009D01*
X133490970Y-62455244D01*
X133308650Y-62548140D01*
X133143105Y-62668417D01*
X133143104Y-62668417D01*
X132998417Y-62813104D01*
X132998417Y-62813105D01*
X132878140Y-62978650D01*
X132785244Y-63160970D01*
X132722009Y-63355586D01*
X132713391Y-63410000D01*
X100075500Y-63410000D01*
X100075500Y-60237019D01*
X132681500Y-60237019D01*
X132681500Y-60442981D01*
X132682348Y-60448335D01*
X132713719Y-60646408D01*
X132777367Y-60842294D01*
X132870873Y-61025806D01*
X132991926Y-61192423D01*
X132991930Y-61192428D01*
X133137571Y-61338069D01*
X133137576Y-61338073D01*
X133282908Y-61443661D01*
X133304197Y-61459129D01*
X133421128Y-61518709D01*
X133487705Y-61552632D01*
X133487707Y-61552632D01*
X133487710Y-61552634D01*
X133592707Y-61586749D01*
X133683591Y-61616280D01*
X133785305Y-61632390D01*
X133887019Y-61648500D01*
X133887020Y-61648500D01*
X134092980Y-61648500D01*
X134092981Y-61648500D01*
X134296408Y-61616280D01*
X134492290Y-61552634D01*
X134675803Y-61459129D01*
X134842430Y-61338068D01*
X134988068Y-61192430D01*
X135109129Y-61025803D01*
X135202634Y-60842290D01*
X135266280Y-60646408D01*
X135298500Y-60442981D01*
X135298500Y-60237019D01*
X140301500Y-60237019D01*
X140301500Y-60442981D01*
X140302348Y-60448335D01*
X140333719Y-60646408D01*
X140397367Y-60842294D01*
X140490873Y-61025806D01*
X140611926Y-61192423D01*
X140611930Y-61192428D01*
X140757571Y-61338069D01*
X140757576Y-61338073D01*
X140902908Y-61443661D01*
X140924197Y-61459129D01*
X141041128Y-61518709D01*
X141107705Y-61552632D01*
X141107707Y-61552632D01*
X141107710Y-61552634D01*
X141212707Y-61586749D01*
X141303591Y-61616280D01*
X141405305Y-61632390D01*
X141507019Y-61648500D01*
X141507020Y-61648500D01*
X141712980Y-61648500D01*
X141712981Y-61648500D01*
X141916408Y-61616280D01*
X142112290Y-61552634D01*
X142295803Y-61459129D01*
X142462430Y-61338068D01*
X142608068Y-61192430D01*
X142729129Y-61025803D01*
X142822634Y-60842290D01*
X142886280Y-60646408D01*
X142918500Y-60442981D01*
X142918500Y-60237019D01*
X142886280Y-60033592D01*
X142868997Y-59980402D01*
X142822632Y-59837705D01*
X142788709Y-59771128D01*
X142729129Y-59654197D01*
X142713661Y-59632908D01*
X142608073Y-59487576D01*
X142608069Y-59487571D01*
X142462428Y-59341930D01*
X142462423Y-59341926D01*
X142295806Y-59220873D01*
X142295805Y-59220872D01*
X142295803Y-59220871D01*
X142238496Y-59191671D01*
X142112294Y-59127367D01*
X141916408Y-59063719D01*
X141740794Y-59035905D01*
X141712981Y-59031500D01*
X141507019Y-59031500D01*
X141482550Y-59035375D01*
X141303591Y-59063719D01*
X141107705Y-59127367D01*
X140924193Y-59220873D01*
X140757576Y-59341926D01*
X140757571Y-59341930D01*
X140611930Y-59487571D01*
X140611926Y-59487576D01*
X140490873Y-59654193D01*
X140397367Y-59837705D01*
X140333719Y-60033591D01*
X140314190Y-60156898D01*
X140301500Y-60237019D01*
X135298500Y-60237019D01*
X135266280Y-60033592D01*
X135248997Y-59980402D01*
X135202632Y-59837705D01*
X135168709Y-59771128D01*
X135109129Y-59654197D01*
X135093661Y-59632908D01*
X134988073Y-59487576D01*
X134988069Y-59487571D01*
X134842428Y-59341930D01*
X134842423Y-59341926D01*
X134675806Y-59220873D01*
X134675805Y-59220872D01*
X134675803Y-59220871D01*
X134618496Y-59191671D01*
X134492294Y-59127367D01*
X134296408Y-59063719D01*
X134120794Y-59035905D01*
X134092981Y-59031500D01*
X133887019Y-59031500D01*
X133862550Y-59035375D01*
X133683591Y-59063719D01*
X133487705Y-59127367D01*
X133304193Y-59220873D01*
X133137576Y-59341926D01*
X133137571Y-59341930D01*
X132991930Y-59487571D01*
X132991926Y-59487576D01*
X132870873Y-59654193D01*
X132777367Y-59837705D01*
X132713719Y-60033591D01*
X132694190Y-60156898D01*
X132681500Y-60237019D01*
X100075500Y-60237019D01*
X100075500Y-56840000D01*
X132713391Y-56840000D01*
X133674314Y-56840000D01*
X133669920Y-56844394D01*
X133617259Y-56935606D01*
X133590000Y-57037339D01*
X133590000Y-57142661D01*
X133617259Y-57244394D01*
X133669920Y-57335606D01*
X133674314Y-57340000D01*
X132713391Y-57340000D01*
X132722009Y-57394413D01*
X132785244Y-57589029D01*
X132878140Y-57771349D01*
X132998417Y-57936894D01*
X132998417Y-57936895D01*
X133143104Y-58081582D01*
X133308650Y-58201859D01*
X133490968Y-58294754D01*
X133685578Y-58357988D01*
X133740000Y-58366607D01*
X133740000Y-57405686D01*
X133744394Y-57410080D01*
X133835606Y-57462741D01*
X133937339Y-57490000D01*
X134042661Y-57490000D01*
X134144394Y-57462741D01*
X134235606Y-57410080D01*
X134240000Y-57405686D01*
X134240000Y-58366606D01*
X134294421Y-58357988D01*
X134489031Y-58294754D01*
X134671349Y-58201859D01*
X134836894Y-58081582D01*
X134836895Y-58081582D01*
X134981582Y-57936895D01*
X134981582Y-57936894D01*
X135101859Y-57771349D01*
X135194755Y-57589029D01*
X135257990Y-57394413D01*
X135266609Y-57340000D01*
X134305686Y-57340000D01*
X134310080Y-57335606D01*
X134362741Y-57244394D01*
X134390000Y-57142661D01*
X134390000Y-57037339D01*
X134376517Y-56987019D01*
X140301500Y-56987019D01*
X140301500Y-57192980D01*
X140333719Y-57396408D01*
X140397367Y-57592294D01*
X140490873Y-57775806D01*
X140611926Y-57942423D01*
X140611930Y-57942428D01*
X140757571Y-58088069D01*
X140757576Y-58088073D01*
X140902908Y-58193661D01*
X140924197Y-58209129D01*
X141041128Y-58268709D01*
X141107705Y-58302632D01*
X141107707Y-58302632D01*
X141107710Y-58302634D01*
X141212707Y-58336749D01*
X141303591Y-58366280D01*
X141405305Y-58382390D01*
X141507019Y-58398500D01*
X141507020Y-58398500D01*
X141712980Y-58398500D01*
X141712981Y-58398500D01*
X141916408Y-58366280D01*
X142112290Y-58302634D01*
X142295803Y-58209129D01*
X142462430Y-58088068D01*
X142608068Y-57942430D01*
X142729129Y-57775803D01*
X142822634Y-57592290D01*
X142886280Y-57396408D01*
X142918500Y-57192981D01*
X142918500Y-56987019D01*
X142894472Y-56835311D01*
X142886280Y-56783591D01*
X142822632Y-56587705D01*
X142788097Y-56519927D01*
X142729129Y-56404197D01*
X142711447Y-56379860D01*
X142608073Y-56237576D01*
X142608069Y-56237571D01*
X142462428Y-56091930D01*
X142462423Y-56091926D01*
X142295806Y-55970873D01*
X142295805Y-55970872D01*
X142295803Y-55970871D01*
X142220969Y-55932741D01*
X142112294Y-55877367D01*
X141916408Y-55813719D01*
X141740794Y-55785905D01*
X141712981Y-55781500D01*
X141507019Y-55781500D01*
X141482550Y-55785375D01*
X141303591Y-55813719D01*
X141107705Y-55877367D01*
X140924193Y-55970873D01*
X140757576Y-56091926D01*
X140757571Y-56091930D01*
X140611930Y-56237571D01*
X140611926Y-56237576D01*
X140490873Y-56404193D01*
X140397367Y-56587705D01*
X140333719Y-56783591D01*
X140301500Y-56987019D01*
X134376517Y-56987019D01*
X134362741Y-56935606D01*
X134310080Y-56844394D01*
X134305686Y-56840000D01*
X135266609Y-56840000D01*
X135257990Y-56785586D01*
X135194755Y-56590970D01*
X135101859Y-56408650D01*
X134981582Y-56243105D01*
X134981582Y-56243104D01*
X134836895Y-56098417D01*
X134671349Y-55978140D01*
X134489029Y-55885244D01*
X134294413Y-55822009D01*
X134240000Y-55813390D01*
X134240000Y-56774314D01*
X134235606Y-56769920D01*
X134144394Y-56717259D01*
X134042661Y-56690000D01*
X133937339Y-56690000D01*
X133835606Y-56717259D01*
X133744394Y-56769920D01*
X133740000Y-56774314D01*
X133740000Y-55813390D01*
X133685586Y-55822009D01*
X133490970Y-55885244D01*
X133308650Y-55978140D01*
X133143105Y-56098417D01*
X133143104Y-56098417D01*
X132998417Y-56243104D01*
X132998417Y-56243105D01*
X132878140Y-56408650D01*
X132785244Y-56590970D01*
X132722009Y-56785586D01*
X132713391Y-56840000D01*
X100075500Y-56840000D01*
X100075500Y-55460948D01*
X148501500Y-55460948D01*
X148501500Y-55659051D01*
X148532487Y-55854700D01*
X148593703Y-56043101D01*
X148682955Y-56218265D01*
X148683634Y-56219598D01*
X148800070Y-56379858D01*
X148940142Y-56519930D01*
X149100402Y-56636366D01*
X149197827Y-56686007D01*
X149263590Y-56719515D01*
X149314386Y-56767490D01*
X149331181Y-56835311D01*
X149308643Y-56901446D01*
X149263590Y-56940485D01*
X149100401Y-57023634D01*
X149008967Y-57090065D01*
X148940142Y-57140070D01*
X148940140Y-57140072D01*
X148940139Y-57140072D01*
X148800072Y-57280139D01*
X148800072Y-57280140D01*
X148800070Y-57280142D01*
X148759773Y-57335606D01*
X148683634Y-57440401D01*
X148593703Y-57616898D01*
X148532487Y-57805299D01*
X148501500Y-58000948D01*
X148501500Y-58199051D01*
X148532487Y-58394700D01*
X148593703Y-58583101D01*
X148683634Y-58759598D01*
X148800070Y-58919858D01*
X148940142Y-59059930D01*
X149100402Y-59176366D01*
X149187748Y-59220871D01*
X149263590Y-59259515D01*
X149314386Y-59307490D01*
X149331181Y-59375311D01*
X149308643Y-59441446D01*
X149263590Y-59480485D01*
X149100401Y-59563634D01*
X149008967Y-59630065D01*
X148940142Y-59680070D01*
X148940140Y-59680072D01*
X148940139Y-59680072D01*
X148800072Y-59820139D01*
X148800072Y-59820140D01*
X148800070Y-59820142D01*
X148787310Y-59837705D01*
X148683634Y-59980401D01*
X148593703Y-60156898D01*
X148532487Y-60345299D01*
X148501500Y-60540948D01*
X148501500Y-60739051D01*
X148532487Y-60934700D01*
X148593703Y-61123101D01*
X148683634Y-61299598D01*
X148800070Y-61459858D01*
X148940142Y-61599930D01*
X149100402Y-61716366D01*
X149197827Y-61766007D01*
X149263590Y-61799515D01*
X149314386Y-61847490D01*
X149331181Y-61915311D01*
X149308643Y-61981446D01*
X149263590Y-62020485D01*
X149100401Y-62103634D01*
X149008967Y-62170065D01*
X148940142Y-62220070D01*
X148940140Y-62220072D01*
X148940139Y-62220072D01*
X148800072Y-62360139D01*
X148800072Y-62360140D01*
X148800070Y-62360142D01*
X148750065Y-62428967D01*
X148683634Y-62520401D01*
X148593703Y-62696898D01*
X148532487Y-62885299D01*
X148501500Y-63080948D01*
X148501500Y-63279051D01*
X148532487Y-63474700D01*
X148593703Y-63663101D01*
X148670792Y-63814394D01*
X148683634Y-63839598D01*
X148800070Y-63999858D01*
X148940142Y-64139930D01*
X149100402Y-64256366D01*
X149183790Y-64298854D01*
X149276898Y-64346296D01*
X149276900Y-64346296D01*
X149276903Y-64346298D01*
X149377888Y-64379110D01*
X149465299Y-64407512D01*
X149660949Y-64438500D01*
X149660954Y-64438500D01*
X149859051Y-64438500D01*
X150054700Y-64407512D01*
X150243097Y-64346298D01*
X150244069Y-64345803D01*
X150252810Y-64341349D01*
X150419598Y-64256366D01*
X150579858Y-64139930D01*
X150719930Y-63999858D01*
X150836366Y-63839598D01*
X150919515Y-63676408D01*
X150967490Y-63625613D01*
X151035311Y-63608818D01*
X151101446Y-63631355D01*
X151140484Y-63676408D01*
X151223634Y-63839598D01*
X151340070Y-63999858D01*
X151480142Y-64139930D01*
X151640402Y-64256366D01*
X151723790Y-64298854D01*
X151816898Y-64346296D01*
X151816900Y-64346296D01*
X151816903Y-64346298D01*
X151917888Y-64379110D01*
X152005299Y-64407512D01*
X152200949Y-64438500D01*
X152200954Y-64438500D01*
X152399051Y-64438500D01*
X152594700Y-64407512D01*
X152783097Y-64346298D01*
X152784069Y-64345803D01*
X152792810Y-64341349D01*
X152846411Y-64314038D01*
X164439500Y-64314038D01*
X164439500Y-64565962D01*
X164454089Y-64658073D01*
X164478910Y-64814785D01*
X164556760Y-65054383D01*
X164671132Y-65278848D01*
X164819201Y-65482649D01*
X164819205Y-65482654D01*
X164997345Y-65660794D01*
X164997350Y-65660798D01*
X165144031Y-65767367D01*
X165201155Y-65808870D01*
X165303213Y-65860871D01*
X165425616Y-65923239D01*
X165425618Y-65923239D01*
X165425621Y-65923241D01*
X165665215Y-66001090D01*
X165914038Y-66040500D01*
X165914039Y-66040500D01*
X166165961Y-66040500D01*
X166165962Y-66040500D01*
X166414785Y-66001090D01*
X166654379Y-65923241D01*
X166878845Y-65808870D01*
X167082656Y-65660793D01*
X167260793Y-65482656D01*
X167408870Y-65278845D01*
X167523241Y-65054379D01*
X167601090Y-64814785D01*
X167640500Y-64565962D01*
X167640500Y-64314038D01*
X167601090Y-64065215D01*
X167523241Y-63825621D01*
X167523239Y-63825618D01*
X167523239Y-63825616D01*
X167465685Y-63712661D01*
X167408870Y-63601155D01*
X167339450Y-63505606D01*
X167260798Y-63397350D01*
X167260794Y-63397345D01*
X167082654Y-63219205D01*
X167082649Y-63219201D01*
X166878848Y-63071132D01*
X166878847Y-63071131D01*
X166878845Y-63071130D01*
X166808747Y-63035413D01*
X166654383Y-62956760D01*
X166414785Y-62878910D01*
X166165962Y-62839500D01*
X165914038Y-62839500D01*
X165789626Y-62859205D01*
X165665214Y-62878910D01*
X165425616Y-62956760D01*
X165201151Y-63071132D01*
X164997350Y-63219201D01*
X164997345Y-63219205D01*
X164819205Y-63397345D01*
X164819201Y-63397350D01*
X164671132Y-63601151D01*
X164556760Y-63825616D01*
X164500145Y-63999860D01*
X164478910Y-64065215D01*
X164439500Y-64314038D01*
X152846411Y-64314038D01*
X152959598Y-64256366D01*
X153119858Y-64139930D01*
X153259930Y-63999858D01*
X153376366Y-63839598D01*
X153466298Y-63663097D01*
X153527512Y-63474700D01*
X153558500Y-63279051D01*
X153558500Y-63080948D01*
X153527512Y-62885299D01*
X153466296Y-62696898D01*
X153390499Y-62548140D01*
X153376366Y-62520402D01*
X153259930Y-62360142D01*
X153119858Y-62220070D01*
X152959598Y-62103634D01*
X152796408Y-62020484D01*
X152745613Y-61972510D01*
X152728818Y-61904689D01*
X152751355Y-61838554D01*
X152796409Y-61799515D01*
X152959598Y-61716366D01*
X153119858Y-61599930D01*
X153259930Y-61459858D01*
X153376366Y-61299598D01*
X153466298Y-61123097D01*
X153527512Y-60934700D01*
X153558500Y-60739051D01*
X153558500Y-60540948D01*
X153527512Y-60345299D01*
X153466296Y-60156898D01*
X153376365Y-59980401D01*
X153259930Y-59820142D01*
X153119858Y-59680070D01*
X152959598Y-59563634D01*
X152796408Y-59480484D01*
X152745613Y-59432510D01*
X152728818Y-59364689D01*
X152751355Y-59298554D01*
X152796409Y-59259515D01*
X152959598Y-59176366D01*
X153119858Y-59059930D01*
X153259930Y-58919858D01*
X153376366Y-58759598D01*
X153466298Y-58583097D01*
X153527512Y-58394700D01*
X153558500Y-58199051D01*
X153558500Y-58000948D01*
X153527512Y-57805299D01*
X153466296Y-57616898D01*
X153418854Y-57523790D01*
X153376366Y-57440402D01*
X153259930Y-57280142D01*
X153119858Y-57140070D01*
X152974302Y-57034317D01*
X152931638Y-56978988D01*
X152925659Y-56909374D01*
X152958265Y-56847579D01*
X153019104Y-56813222D01*
X153047189Y-56810000D01*
X153097828Y-56810000D01*
X153097844Y-56809999D01*
X153157372Y-56803598D01*
X153157379Y-56803596D01*
X153292086Y-56753354D01*
X153292093Y-56753350D01*
X153407187Y-56667190D01*
X153407190Y-56667187D01*
X153493350Y-56552093D01*
X153493354Y-56552086D01*
X153543596Y-56417379D01*
X153543598Y-56417372D01*
X153549999Y-56357844D01*
X153550000Y-56357827D01*
X153550000Y-55810000D01*
X152615686Y-55810000D01*
X152620080Y-55805606D01*
X152672741Y-55714394D01*
X152700000Y-55612661D01*
X152700000Y-55507339D01*
X152672741Y-55405606D01*
X152620080Y-55314394D01*
X152615686Y-55310000D01*
X153550000Y-55310000D01*
X153550000Y-54762172D01*
X153549999Y-54762155D01*
X153543598Y-54702627D01*
X153543596Y-54702620D01*
X153493354Y-54567913D01*
X153493350Y-54567906D01*
X153407190Y-54452812D01*
X153407187Y-54452809D01*
X153292093Y-54366649D01*
X153292086Y-54366645D01*
X153157379Y-54316403D01*
X153157372Y-54316401D01*
X153097844Y-54310000D01*
X152550000Y-54310000D01*
X152550000Y-55244314D01*
X152545606Y-55239920D01*
X152454394Y-55187259D01*
X152352661Y-55160000D01*
X152247339Y-55160000D01*
X152145606Y-55187259D01*
X152054394Y-55239920D01*
X152050000Y-55244314D01*
X152050000Y-54310000D01*
X151502155Y-54310000D01*
X151442627Y-54316401D01*
X151442620Y-54316403D01*
X151307913Y-54366645D01*
X151307906Y-54366649D01*
X151192812Y-54452809D01*
X151192809Y-54452812D01*
X151106649Y-54567906D01*
X151106645Y-54567913D01*
X151056403Y-54702620D01*
X151056401Y-54702627D01*
X151050000Y-54762155D01*
X151050000Y-54812810D01*
X151030315Y-54879849D01*
X150977511Y-54925604D01*
X150908353Y-54935548D01*
X150844797Y-54906523D01*
X150825682Y-54885696D01*
X150772111Y-54811964D01*
X150719930Y-54740142D01*
X150579858Y-54600070D01*
X150419598Y-54483634D01*
X150359101Y-54452809D01*
X150243101Y-54393703D01*
X150054700Y-54332487D01*
X149859051Y-54301500D01*
X149859046Y-54301500D01*
X149660954Y-54301500D01*
X149660949Y-54301500D01*
X149465299Y-54332487D01*
X149276898Y-54393703D01*
X149100401Y-54483634D01*
X149022436Y-54540280D01*
X148940142Y-54600070D01*
X148940140Y-54600072D01*
X148940139Y-54600072D01*
X148800072Y-54740139D01*
X148800072Y-54740140D01*
X148800070Y-54740142D01*
X148750065Y-54808967D01*
X148683634Y-54900401D01*
X148593703Y-55076898D01*
X148532487Y-55265299D01*
X148501500Y-55460948D01*
X100075500Y-55460948D01*
X100075500Y-52316155D01*
X107485000Y-52316155D01*
X107485000Y-53014000D01*
X108509722Y-53014000D01*
X108465667Y-53090306D01*
X108435000Y-53204756D01*
X108435000Y-53323244D01*
X108465667Y-53437694D01*
X108509722Y-53514000D01*
X107485000Y-53514000D01*
X107485000Y-54211844D01*
X107491401Y-54271372D01*
X107491403Y-54271379D01*
X107541645Y-54406086D01*
X107541649Y-54406093D01*
X107627809Y-54521187D01*
X107627812Y-54521190D01*
X107742906Y-54607350D01*
X107742913Y-54607354D01*
X107877620Y-54657596D01*
X107877627Y-54657598D01*
X107937155Y-54663999D01*
X107937172Y-54664000D01*
X108635000Y-54664000D01*
X108635000Y-53639277D01*
X108711306Y-53683333D01*
X108825756Y-53714000D01*
X108944244Y-53714000D01*
X109058694Y-53683333D01*
X109135000Y-53639277D01*
X109135000Y-54664000D01*
X109832828Y-54664000D01*
X109832844Y-54663999D01*
X109892372Y-54657598D01*
X109892379Y-54657596D01*
X110027086Y-54607354D01*
X110027093Y-54607350D01*
X110142187Y-54521190D01*
X110142190Y-54521187D01*
X110228350Y-54406093D01*
X110228354Y-54406086D01*
X110255140Y-54334270D01*
X110297011Y-54278336D01*
X110362475Y-54253919D01*
X110430748Y-54268770D01*
X110459003Y-54289922D01*
X110507424Y-54338343D01*
X110686785Y-54468657D01*
X110780114Y-54516210D01*
X110884319Y-54569306D01*
X110884321Y-54569306D01*
X110884324Y-54569308D01*
X111095176Y-54637818D01*
X111314149Y-54672500D01*
X111314150Y-54672500D01*
X111535850Y-54672500D01*
X111535851Y-54672500D01*
X111754824Y-54637818D01*
X111965676Y-54569308D01*
X112163215Y-54468657D01*
X112342576Y-54338343D01*
X112499343Y-54181576D01*
X112629657Y-54002215D01*
X112730308Y-53804676D01*
X112798818Y-53593824D01*
X112833500Y-53374851D01*
X112833500Y-53161019D01*
X114439500Y-53161019D01*
X114439500Y-53366981D01*
X114443905Y-53394794D01*
X114471719Y-53570408D01*
X114535367Y-53766294D01*
X114628873Y-53949806D01*
X114749926Y-54116423D01*
X114749930Y-54116428D01*
X114895571Y-54262069D01*
X114895576Y-54262073D01*
X114961543Y-54310000D01*
X115062197Y-54383129D01*
X115179128Y-54442709D01*
X115245705Y-54476632D01*
X115245707Y-54476632D01*
X115245710Y-54476634D01*
X115350707Y-54510749D01*
X115441591Y-54540280D01*
X115476462Y-54545803D01*
X115645019Y-54572500D01*
X115645020Y-54572500D01*
X115850980Y-54572500D01*
X115850981Y-54572500D01*
X116054408Y-54540280D01*
X116250290Y-54476634D01*
X116433803Y-54383129D01*
X116600430Y-54262068D01*
X116746068Y-54116430D01*
X116867129Y-53949803D01*
X116960634Y-53766290D01*
X117024280Y-53570408D01*
X117056500Y-53366981D01*
X117056500Y-53161019D01*
X122059500Y-53161019D01*
X122059500Y-53366981D01*
X122063905Y-53394794D01*
X122091719Y-53570408D01*
X122155367Y-53766294D01*
X122248873Y-53949806D01*
X122369926Y-54116423D01*
X122369930Y-54116428D01*
X122515571Y-54262069D01*
X122515576Y-54262073D01*
X122581543Y-54310000D01*
X122682197Y-54383129D01*
X122799128Y-54442709D01*
X122865705Y-54476632D01*
X122865707Y-54476632D01*
X122865710Y-54476634D01*
X122970707Y-54510749D01*
X123061591Y-54540280D01*
X123096462Y-54545803D01*
X123265019Y-54572500D01*
X123265020Y-54572500D01*
X123470980Y-54572500D01*
X123470981Y-54572500D01*
X123674408Y-54540280D01*
X123870290Y-54476634D01*
X124053803Y-54383129D01*
X124220430Y-54262068D01*
X124366068Y-54116430D01*
X124487129Y-53949803D01*
X124580634Y-53766290D01*
X124583646Y-53757019D01*
X132691500Y-53757019D01*
X132691500Y-53962980D01*
X132723719Y-54166408D01*
X132787367Y-54362294D01*
X132833488Y-54452809D01*
X132868328Y-54521187D01*
X132880873Y-54545806D01*
X133001926Y-54712423D01*
X133001930Y-54712428D01*
X133147571Y-54858069D01*
X133147576Y-54858073D01*
X133292908Y-54963661D01*
X133314197Y-54979129D01*
X133431128Y-55038709D01*
X133497705Y-55072632D01*
X133497707Y-55072632D01*
X133497710Y-55072634D01*
X133602707Y-55106749D01*
X133693591Y-55136280D01*
X133795305Y-55152390D01*
X133897019Y-55168500D01*
X133897020Y-55168500D01*
X134102980Y-55168500D01*
X134102981Y-55168500D01*
X134306408Y-55136280D01*
X134502290Y-55072634D01*
X134685803Y-54979129D01*
X134852430Y-54858068D01*
X134998068Y-54712430D01*
X135119129Y-54545803D01*
X135212634Y-54362290D01*
X135276280Y-54166408D01*
X135308500Y-53962981D01*
X135308500Y-53757019D01*
X140311500Y-53757019D01*
X140311500Y-53962980D01*
X140343719Y-54166408D01*
X140407367Y-54362294D01*
X140453488Y-54452809D01*
X140488328Y-54521187D01*
X140500873Y-54545806D01*
X140621926Y-54712423D01*
X140621930Y-54712428D01*
X140767571Y-54858069D01*
X140767576Y-54858073D01*
X140912908Y-54963661D01*
X140934197Y-54979129D01*
X141051128Y-55038709D01*
X141117705Y-55072632D01*
X141117707Y-55072632D01*
X141117710Y-55072634D01*
X141222707Y-55106749D01*
X141313591Y-55136280D01*
X141415305Y-55152390D01*
X141517019Y-55168500D01*
X141517020Y-55168500D01*
X141722980Y-55168500D01*
X141722981Y-55168500D01*
X141926408Y-55136280D01*
X142122290Y-55072634D01*
X142305803Y-54979129D01*
X142472430Y-54858068D01*
X142618068Y-54712430D01*
X142739129Y-54545803D01*
X142832634Y-54362290D01*
X142896280Y-54166408D01*
X142928500Y-53962981D01*
X142928500Y-53757019D01*
X142898944Y-53570409D01*
X142896280Y-53553591D01*
X142832632Y-53357705D01*
X142798709Y-53291128D01*
X142739129Y-53174197D01*
X142622740Y-53014000D01*
X142618073Y-53007576D01*
X142618069Y-53007571D01*
X142472428Y-52861930D01*
X142472423Y-52861926D01*
X142305806Y-52740873D01*
X142305805Y-52740872D01*
X142305803Y-52740871D01*
X142248496Y-52711671D01*
X142122294Y-52647367D01*
X141926408Y-52583719D01*
X141750794Y-52555905D01*
X141722981Y-52551500D01*
X141517019Y-52551500D01*
X141492550Y-52555375D01*
X141313591Y-52583719D01*
X141117705Y-52647367D01*
X140934193Y-52740873D01*
X140767576Y-52861926D01*
X140767571Y-52861930D01*
X140621930Y-53007571D01*
X140621926Y-53007576D01*
X140500873Y-53174193D01*
X140407367Y-53357705D01*
X140343719Y-53553591D01*
X140311500Y-53757019D01*
X135308500Y-53757019D01*
X135278944Y-53570409D01*
X135276280Y-53553591D01*
X135212632Y-53357705D01*
X135178709Y-53291128D01*
X135119129Y-53174197D01*
X135002740Y-53014000D01*
X134998073Y-53007576D01*
X134998069Y-53007571D01*
X134852428Y-52861930D01*
X134852423Y-52861926D01*
X134685806Y-52740873D01*
X134685805Y-52740872D01*
X134685803Y-52740871D01*
X134628496Y-52711671D01*
X134502294Y-52647367D01*
X134306408Y-52583719D01*
X134130794Y-52555905D01*
X134102981Y-52551500D01*
X133897019Y-52551500D01*
X133872550Y-52555375D01*
X133693591Y-52583719D01*
X133497705Y-52647367D01*
X133314193Y-52740873D01*
X133147576Y-52861926D01*
X133147571Y-52861930D01*
X133001930Y-53007571D01*
X133001926Y-53007576D01*
X132880873Y-53174193D01*
X132787367Y-53357705D01*
X132723719Y-53553591D01*
X132691500Y-53757019D01*
X124583646Y-53757019D01*
X124644280Y-53570408D01*
X124676500Y-53366981D01*
X124676500Y-53161019D01*
X124644280Y-52957592D01*
X124636671Y-52934175D01*
X124580632Y-52761705D01*
X124522373Y-52647367D01*
X124487129Y-52578197D01*
X124449049Y-52525784D01*
X124366073Y-52411576D01*
X124366069Y-52411571D01*
X124220428Y-52265930D01*
X124220423Y-52265926D01*
X124053806Y-52144873D01*
X124053805Y-52144872D01*
X124053803Y-52144871D01*
X123996496Y-52115671D01*
X123870294Y-52051367D01*
X123674408Y-51987719D01*
X123498794Y-51959905D01*
X123470981Y-51955500D01*
X123265019Y-51955500D01*
X123240550Y-51959375D01*
X123061591Y-51987719D01*
X122865705Y-52051367D01*
X122682193Y-52144873D01*
X122515576Y-52265926D01*
X122515571Y-52265930D01*
X122369930Y-52411571D01*
X122369926Y-52411576D01*
X122248873Y-52578193D01*
X122155367Y-52761705D01*
X122091719Y-52957591D01*
X122070700Y-53090306D01*
X122059500Y-53161019D01*
X117056500Y-53161019D01*
X117024280Y-52957592D01*
X117016671Y-52934175D01*
X116960632Y-52761705D01*
X116902373Y-52647367D01*
X116867129Y-52578197D01*
X116829049Y-52525784D01*
X116746073Y-52411576D01*
X116746069Y-52411571D01*
X116600428Y-52265930D01*
X116600423Y-52265926D01*
X116433806Y-52144873D01*
X116433805Y-52144872D01*
X116433803Y-52144871D01*
X116376496Y-52115671D01*
X116250294Y-52051367D01*
X116054408Y-51987719D01*
X115878794Y-51959905D01*
X115850981Y-51955500D01*
X115645019Y-51955500D01*
X115620550Y-51959375D01*
X115441591Y-51987719D01*
X115245705Y-52051367D01*
X115062193Y-52144873D01*
X114895576Y-52265926D01*
X114895571Y-52265930D01*
X114749930Y-52411571D01*
X114749926Y-52411576D01*
X114628873Y-52578193D01*
X114535367Y-52761705D01*
X114471719Y-52957591D01*
X114450700Y-53090306D01*
X114439500Y-53161019D01*
X112833500Y-53161019D01*
X112833500Y-53153149D01*
X112798818Y-52934176D01*
X112730308Y-52723324D01*
X112730306Y-52723321D01*
X112730306Y-52723319D01*
X112629656Y-52525784D01*
X112499343Y-52346424D01*
X112342576Y-52189657D01*
X112163215Y-52059343D01*
X112147559Y-52051366D01*
X111965680Y-51958693D01*
X111754824Y-51890182D01*
X111535851Y-51855500D01*
X111314149Y-51855500D01*
X111204662Y-51872841D01*
X111095175Y-51890182D01*
X110884319Y-51958693D01*
X110686784Y-52059343D01*
X110600675Y-52121906D01*
X110507424Y-52189657D01*
X110507422Y-52189659D01*
X110507420Y-52189660D01*
X110459002Y-52238078D01*
X110397679Y-52271562D01*
X110327987Y-52266577D01*
X110272054Y-52224705D01*
X110255140Y-52193729D01*
X110228354Y-52121913D01*
X110228350Y-52121906D01*
X110142190Y-52006812D01*
X110142187Y-52006809D01*
X110027093Y-51920649D01*
X110027086Y-51920645D01*
X109892379Y-51870403D01*
X109892372Y-51870401D01*
X109832844Y-51864000D01*
X109135000Y-51864000D01*
X109135000Y-52888722D01*
X109058694Y-52844667D01*
X108944244Y-52814000D01*
X108825756Y-52814000D01*
X108711306Y-52844667D01*
X108635000Y-52888722D01*
X108635000Y-51864000D01*
X107937155Y-51864000D01*
X107877627Y-51870401D01*
X107877620Y-51870403D01*
X107742913Y-51920645D01*
X107742906Y-51920649D01*
X107627812Y-52006809D01*
X107627809Y-52006812D01*
X107541649Y-52121906D01*
X107541645Y-52121913D01*
X107491403Y-52256620D01*
X107491401Y-52256627D01*
X107485000Y-52316155D01*
X100075500Y-52316155D01*
X100075500Y-49074038D01*
X113639500Y-49074038D01*
X113639500Y-49325961D01*
X113678910Y-49574785D01*
X113756760Y-49814383D01*
X113871132Y-50038848D01*
X114019201Y-50242649D01*
X114019205Y-50242654D01*
X114197345Y-50420794D01*
X114197350Y-50420798D01*
X114307587Y-50500889D01*
X114401155Y-50568870D01*
X114544184Y-50641747D01*
X114625616Y-50683239D01*
X114625618Y-50683239D01*
X114625621Y-50683241D01*
X114865215Y-50761090D01*
X115114038Y-50800500D01*
X115114039Y-50800500D01*
X115365961Y-50800500D01*
X115365962Y-50800500D01*
X115614785Y-50761090D01*
X115854379Y-50683241D01*
X116078845Y-50568870D01*
X116282656Y-50420793D01*
X116460793Y-50242656D01*
X116608870Y-50038845D01*
X116723241Y-49814379D01*
X116801090Y-49574785D01*
X116840500Y-49325962D01*
X116840500Y-49074038D01*
X116801090Y-48825215D01*
X116723241Y-48585621D01*
X116723239Y-48585618D01*
X116723239Y-48585616D01*
X116673498Y-48487994D01*
X116608870Y-48361155D01*
X116565416Y-48301345D01*
X117437500Y-48301345D01*
X117437500Y-50098654D01*
X117444011Y-50159202D01*
X117444011Y-50159204D01*
X117475138Y-50242656D01*
X117495111Y-50296204D01*
X117582739Y-50413261D01*
X117699796Y-50500889D01*
X117836799Y-50551989D01*
X117864050Y-50554918D01*
X117897345Y-50558499D01*
X117897362Y-50558500D01*
X119694638Y-50558500D01*
X119694654Y-50558499D01*
X119721692Y-50555591D01*
X119755201Y-50551989D01*
X119892204Y-50500889D01*
X120009261Y-50413261D01*
X120096889Y-50296204D01*
X120141957Y-50175371D01*
X120183827Y-50119442D01*
X120249291Y-50095025D01*
X120317564Y-50109877D01*
X120345818Y-50131028D01*
X120450996Y-50236206D01*
X120623991Y-50361894D01*
X120717438Y-50409507D01*
X120814516Y-50458972D01*
X120814519Y-50458973D01*
X120916200Y-50492010D01*
X121017884Y-50525049D01*
X121229084Y-50558500D01*
X121229085Y-50558500D01*
X121442915Y-50558500D01*
X121442916Y-50558500D01*
X121654116Y-50525049D01*
X121857483Y-50458972D01*
X122048009Y-50361894D01*
X122221004Y-50236206D01*
X122372206Y-50085004D01*
X122497894Y-49912009D01*
X122497896Y-49912004D01*
X122500270Y-49908132D01*
X122552080Y-49861254D01*
X122621009Y-49849829D01*
X122685173Y-49877483D01*
X122711730Y-49908132D01*
X122714103Y-49912005D01*
X122714105Y-49912008D01*
X122714106Y-49912009D01*
X122839794Y-50085004D01*
X122990996Y-50236206D01*
X123163991Y-50361894D01*
X123257438Y-50409507D01*
X123354516Y-50458972D01*
X123354519Y-50458973D01*
X123456200Y-50492010D01*
X123557884Y-50525049D01*
X123769084Y-50558500D01*
X123769085Y-50558500D01*
X123982915Y-50558500D01*
X123982916Y-50558500D01*
X124194116Y-50525049D01*
X124397483Y-50458972D01*
X124588009Y-50361894D01*
X124761004Y-50236206D01*
X124912206Y-50085004D01*
X125037894Y-49912009D01*
X125040283Y-49907319D01*
X125088254Y-49856522D01*
X125156074Y-49839724D01*
X125222210Y-49862258D01*
X125258201Y-49903788D01*
X125258832Y-49903402D01*
X125261164Y-49907207D01*
X125261251Y-49907308D01*
X125261376Y-49907554D01*
X125386272Y-50079459D01*
X125386276Y-50079464D01*
X125536535Y-50229723D01*
X125536540Y-50229727D01*
X125708442Y-50354620D01*
X125897782Y-50451095D01*
X126099871Y-50516757D01*
X126166000Y-50527231D01*
X126166000Y-49633012D01*
X126223007Y-49665925D01*
X126350174Y-49700000D01*
X126481826Y-49700000D01*
X126608993Y-49665925D01*
X126666000Y-49633012D01*
X126666000Y-50527230D01*
X126732126Y-50516757D01*
X126732129Y-50516757D01*
X126934217Y-50451095D01*
X127123557Y-50354620D01*
X127295459Y-50229727D01*
X127295464Y-50229723D01*
X127445723Y-50079464D01*
X127445727Y-50079459D01*
X127570619Y-49907560D01*
X127570738Y-49907327D01*
X127570808Y-49907252D01*
X127573168Y-49903402D01*
X127573976Y-49903897D01*
X127618707Y-49856526D01*
X127686526Y-49839723D01*
X127752663Y-49862254D01*
X127791712Y-49907311D01*
X127794105Y-49912008D01*
X127836002Y-49969674D01*
X127919794Y-50085004D01*
X128070996Y-50236206D01*
X128243991Y-50361894D01*
X128337438Y-50409507D01*
X128434516Y-50458972D01*
X128434519Y-50458973D01*
X128536200Y-50492010D01*
X128637884Y-50525049D01*
X128849084Y-50558500D01*
X128849085Y-50558500D01*
X129062915Y-50558500D01*
X129062916Y-50558500D01*
X129274116Y-50525049D01*
X129477483Y-50458972D01*
X129668009Y-50361894D01*
X129841004Y-50236206D01*
X129992206Y-50085004D01*
X130117894Y-49912009D01*
X130117896Y-49912004D01*
X130120270Y-49908132D01*
X130172080Y-49861254D01*
X130241009Y-49849829D01*
X130305173Y-49877483D01*
X130331730Y-49908132D01*
X130334103Y-49912005D01*
X130334105Y-49912008D01*
X130334106Y-49912009D01*
X130459794Y-50085004D01*
X130610996Y-50236206D01*
X130783991Y-50361894D01*
X130877438Y-50409507D01*
X130974516Y-50458972D01*
X130974519Y-50458973D01*
X131076200Y-50492010D01*
X131177884Y-50525049D01*
X131389084Y-50558500D01*
X131389085Y-50558500D01*
X131602915Y-50558500D01*
X131602916Y-50558500D01*
X131814116Y-50525049D01*
X132017483Y-50458972D01*
X132208009Y-50361894D01*
X132381004Y-50236206D01*
X132532206Y-50085004D01*
X132657894Y-49912009D01*
X132657896Y-49912004D01*
X132660270Y-49908132D01*
X132712080Y-49861254D01*
X132781009Y-49849829D01*
X132845173Y-49877483D01*
X132871730Y-49908132D01*
X132874103Y-49912005D01*
X132874105Y-49912008D01*
X132874106Y-49912009D01*
X132999794Y-50085004D01*
X133150996Y-50236206D01*
X133323991Y-50361894D01*
X133417438Y-50409507D01*
X133514516Y-50458972D01*
X133514519Y-50458973D01*
X133616200Y-50492010D01*
X133717884Y-50525049D01*
X133929084Y-50558500D01*
X133929085Y-50558500D01*
X134142915Y-50558500D01*
X134142916Y-50558500D01*
X134354116Y-50525049D01*
X134557483Y-50458972D01*
X134748009Y-50361894D01*
X134921004Y-50236206D01*
X135072206Y-50085004D01*
X135197894Y-49912009D01*
X135197896Y-49912004D01*
X135200270Y-49908132D01*
X135252080Y-49861254D01*
X135321009Y-49849829D01*
X135385173Y-49877483D01*
X135411730Y-49908132D01*
X135414103Y-49912005D01*
X135414105Y-49912008D01*
X135414106Y-49912009D01*
X135539794Y-50085004D01*
X135690996Y-50236206D01*
X135863991Y-50361894D01*
X135957438Y-50409507D01*
X136054516Y-50458972D01*
X136054519Y-50458973D01*
X136156200Y-50492010D01*
X136257884Y-50525049D01*
X136469084Y-50558500D01*
X136469085Y-50558500D01*
X136682915Y-50558500D01*
X136682916Y-50558500D01*
X136894116Y-50525049D01*
X137097483Y-50458972D01*
X137288009Y-50361894D01*
X137461004Y-50236206D01*
X137612206Y-50085004D01*
X137737894Y-49912009D01*
X137737896Y-49912004D01*
X137740270Y-49908132D01*
X137792080Y-49861254D01*
X137861009Y-49849829D01*
X137925173Y-49877483D01*
X137951730Y-49908132D01*
X137954103Y-49912005D01*
X137954105Y-49912008D01*
X137954106Y-49912009D01*
X138079794Y-50085004D01*
X138230996Y-50236206D01*
X138403991Y-50361894D01*
X138497438Y-50409507D01*
X138594516Y-50458972D01*
X138594519Y-50458973D01*
X138696200Y-50492010D01*
X138797884Y-50525049D01*
X139009084Y-50558500D01*
X139009085Y-50558500D01*
X139222915Y-50558500D01*
X139222916Y-50558500D01*
X139434116Y-50525049D01*
X139637483Y-50458972D01*
X139828009Y-50361894D01*
X140001004Y-50236206D01*
X140152206Y-50085004D01*
X140277894Y-49912009D01*
X140277896Y-49912004D01*
X140280270Y-49908132D01*
X140332080Y-49861254D01*
X140401009Y-49849829D01*
X140465173Y-49877483D01*
X140491730Y-49908132D01*
X140494103Y-49912005D01*
X140494105Y-49912008D01*
X140494106Y-49912009D01*
X140619794Y-50085004D01*
X140770996Y-50236206D01*
X140943991Y-50361894D01*
X141037438Y-50409507D01*
X141134516Y-50458972D01*
X141134519Y-50458973D01*
X141236200Y-50492010D01*
X141337884Y-50525049D01*
X141549084Y-50558500D01*
X141549085Y-50558500D01*
X141762915Y-50558500D01*
X141762916Y-50558500D01*
X141974116Y-50525049D01*
X142177483Y-50458972D01*
X142368009Y-50361894D01*
X142541004Y-50236206D01*
X142692206Y-50085004D01*
X142817894Y-49912009D01*
X142914972Y-49721483D01*
X142981049Y-49518116D01*
X143014500Y-49306916D01*
X143014500Y-49093084D01*
X142981049Y-48881884D01*
X142914972Y-48678517D01*
X142914972Y-48678516D01*
X142867639Y-48585621D01*
X142817894Y-48487991D01*
X142692206Y-48314996D01*
X142678555Y-48301345D01*
X144361500Y-48301345D01*
X144361500Y-50098654D01*
X144368011Y-50159202D01*
X144368011Y-50159204D01*
X144399138Y-50242656D01*
X144419111Y-50296204D01*
X144506739Y-50413261D01*
X144623796Y-50500889D01*
X144760799Y-50551989D01*
X144788050Y-50554918D01*
X144821345Y-50558499D01*
X144821362Y-50558500D01*
X146618638Y-50558500D01*
X146618654Y-50558499D01*
X146645692Y-50555591D01*
X146679201Y-50551989D01*
X146816204Y-50500889D01*
X146933261Y-50413261D01*
X147020889Y-50296204D01*
X147065957Y-50175371D01*
X147107827Y-50119442D01*
X147173291Y-50095025D01*
X147241564Y-50109877D01*
X147269818Y-50131028D01*
X147374996Y-50236206D01*
X147547991Y-50361894D01*
X147641438Y-50409507D01*
X147738516Y-50458972D01*
X147738519Y-50458973D01*
X147840200Y-50492010D01*
X147941884Y-50525049D01*
X148153084Y-50558500D01*
X148153085Y-50558500D01*
X148366915Y-50558500D01*
X148366916Y-50558500D01*
X148578116Y-50525049D01*
X148781483Y-50458972D01*
X148972009Y-50361894D01*
X149145004Y-50236206D01*
X149296206Y-50085004D01*
X149421894Y-49912009D01*
X149421896Y-49912004D01*
X149424270Y-49908132D01*
X149476080Y-49861254D01*
X149545009Y-49849829D01*
X149609173Y-49877483D01*
X149635730Y-49908132D01*
X149638103Y-49912005D01*
X149638105Y-49912008D01*
X149638106Y-49912009D01*
X149763794Y-50085004D01*
X149914996Y-50236206D01*
X150087991Y-50361894D01*
X150181438Y-50409507D01*
X150278516Y-50458972D01*
X150278519Y-50458973D01*
X150380200Y-50492010D01*
X150481884Y-50525049D01*
X150693084Y-50558500D01*
X150693085Y-50558500D01*
X150906915Y-50558500D01*
X150906916Y-50558500D01*
X151118116Y-50525049D01*
X151321483Y-50458972D01*
X151512009Y-50361894D01*
X151685004Y-50236206D01*
X151836206Y-50085004D01*
X151961894Y-49912009D01*
X151961896Y-49912004D01*
X151964270Y-49908132D01*
X152016080Y-49861254D01*
X152085009Y-49849829D01*
X152149173Y-49877483D01*
X152175730Y-49908132D01*
X152178103Y-49912005D01*
X152178105Y-49912008D01*
X152178106Y-49912009D01*
X152303794Y-50085004D01*
X152454996Y-50236206D01*
X152627991Y-50361894D01*
X152721438Y-50409507D01*
X152818516Y-50458972D01*
X152818519Y-50458973D01*
X152920200Y-50492010D01*
X153021884Y-50525049D01*
X153233084Y-50558500D01*
X153233085Y-50558500D01*
X153446915Y-50558500D01*
X153446916Y-50558500D01*
X153658116Y-50525049D01*
X153861483Y-50458972D01*
X154052009Y-50361894D01*
X154225004Y-50236206D01*
X154376206Y-50085004D01*
X154501894Y-49912009D01*
X154501896Y-49912004D01*
X154504270Y-49908132D01*
X154556080Y-49861254D01*
X154625009Y-49849829D01*
X154689173Y-49877483D01*
X154715730Y-49908132D01*
X154718103Y-49912005D01*
X154718105Y-49912008D01*
X154718106Y-49912009D01*
X154843794Y-50085004D01*
X154994996Y-50236206D01*
X155167991Y-50361894D01*
X155261438Y-50409507D01*
X155358516Y-50458972D01*
X155358519Y-50458973D01*
X155460200Y-50492010D01*
X155561884Y-50525049D01*
X155773084Y-50558500D01*
X155773085Y-50558500D01*
X155986915Y-50558500D01*
X155986916Y-50558500D01*
X156198116Y-50525049D01*
X156401483Y-50458972D01*
X156592009Y-50361894D01*
X156765004Y-50236206D01*
X156916206Y-50085004D01*
X157041894Y-49912009D01*
X157041896Y-49912004D01*
X157044270Y-49908132D01*
X157096080Y-49861254D01*
X157165009Y-49849829D01*
X157229173Y-49877483D01*
X157255730Y-49908132D01*
X157258103Y-49912005D01*
X157258105Y-49912008D01*
X157258106Y-49912009D01*
X157383794Y-50085004D01*
X157534996Y-50236206D01*
X157707991Y-50361894D01*
X157801438Y-50409507D01*
X157898516Y-50458972D01*
X157898519Y-50458973D01*
X158000200Y-50492010D01*
X158101884Y-50525049D01*
X158313084Y-50558500D01*
X158313085Y-50558500D01*
X158526915Y-50558500D01*
X158526916Y-50558500D01*
X158738116Y-50525049D01*
X158941483Y-50458972D01*
X159132009Y-50361894D01*
X159305004Y-50236206D01*
X159456206Y-50085004D01*
X159581894Y-49912009D01*
X159581896Y-49912004D01*
X159584270Y-49908132D01*
X159636080Y-49861254D01*
X159705009Y-49849829D01*
X159769173Y-49877483D01*
X159795730Y-49908132D01*
X159798103Y-49912005D01*
X159798105Y-49912008D01*
X159798106Y-49912009D01*
X159923794Y-50085004D01*
X160074996Y-50236206D01*
X160247991Y-50361894D01*
X160341438Y-50409507D01*
X160438516Y-50458972D01*
X160438519Y-50458973D01*
X160540200Y-50492010D01*
X160641884Y-50525049D01*
X160853084Y-50558500D01*
X160853085Y-50558500D01*
X161066915Y-50558500D01*
X161066916Y-50558500D01*
X161278116Y-50525049D01*
X161481483Y-50458972D01*
X161672009Y-50361894D01*
X161845004Y-50236206D01*
X161996206Y-50085004D01*
X162121894Y-49912009D01*
X162121896Y-49912004D01*
X162124270Y-49908132D01*
X162176080Y-49861254D01*
X162245009Y-49849829D01*
X162309173Y-49877483D01*
X162335730Y-49908132D01*
X162338103Y-49912005D01*
X162338105Y-49912008D01*
X162338106Y-49912009D01*
X162463794Y-50085004D01*
X162614996Y-50236206D01*
X162787991Y-50361894D01*
X162881438Y-50409507D01*
X162978516Y-50458972D01*
X162978519Y-50458973D01*
X163080200Y-50492010D01*
X163181884Y-50525049D01*
X163393084Y-50558500D01*
X163393085Y-50558500D01*
X163606915Y-50558500D01*
X163606916Y-50558500D01*
X163818116Y-50525049D01*
X164021483Y-50458972D01*
X164212009Y-50361894D01*
X164385004Y-50236206D01*
X164536206Y-50085004D01*
X164661894Y-49912009D01*
X164758972Y-49721483D01*
X164825049Y-49518116D01*
X164858500Y-49306916D01*
X164858500Y-49093084D01*
X164825049Y-48881884D01*
X164758972Y-48678517D01*
X164758972Y-48678516D01*
X164709507Y-48581438D01*
X164661894Y-48487991D01*
X164536206Y-48314996D01*
X164385004Y-48163794D01*
X164212009Y-48038106D01*
X164021483Y-47941027D01*
X164021480Y-47941026D01*
X163818117Y-47874951D01*
X163712516Y-47858225D01*
X163606916Y-47841500D01*
X163393084Y-47841500D01*
X163322684Y-47852650D01*
X163181882Y-47874951D01*
X162978519Y-47941026D01*
X162978516Y-47941027D01*
X162787990Y-48038106D01*
X162614993Y-48163796D01*
X162463796Y-48314993D01*
X162338105Y-48487991D01*
X162335727Y-48491873D01*
X162283914Y-48538748D01*
X162214984Y-48550169D01*
X162150822Y-48522512D01*
X162124273Y-48491873D01*
X162121894Y-48487991D01*
X162121891Y-48487987D01*
X161996206Y-48314996D01*
X161845004Y-48163794D01*
X161672009Y-48038106D01*
X161481483Y-47941027D01*
X161481480Y-47941026D01*
X161278117Y-47874951D01*
X161172516Y-47858225D01*
X161066916Y-47841500D01*
X160853084Y-47841500D01*
X160782684Y-47852650D01*
X160641882Y-47874951D01*
X160438519Y-47941026D01*
X160438516Y-47941027D01*
X160247990Y-48038106D01*
X160074993Y-48163796D01*
X159923796Y-48314993D01*
X159798105Y-48487991D01*
X159795727Y-48491873D01*
X159743914Y-48538748D01*
X159674984Y-48550169D01*
X159610822Y-48522512D01*
X159584273Y-48491873D01*
X159581894Y-48487991D01*
X159581891Y-48487987D01*
X159456206Y-48314996D01*
X159305004Y-48163794D01*
X159132009Y-48038106D01*
X158941483Y-47941027D01*
X158941480Y-47941026D01*
X158738117Y-47874951D01*
X158632516Y-47858225D01*
X158526916Y-47841500D01*
X158313084Y-47841500D01*
X158242684Y-47852650D01*
X158101882Y-47874951D01*
X157898519Y-47941026D01*
X157898516Y-47941027D01*
X157707990Y-48038106D01*
X157534993Y-48163796D01*
X157383796Y-48314993D01*
X157258105Y-48487991D01*
X157255727Y-48491873D01*
X157203914Y-48538748D01*
X157134984Y-48550169D01*
X157070822Y-48522512D01*
X157044273Y-48491873D01*
X157041894Y-48487991D01*
X157041891Y-48487987D01*
X156916206Y-48314996D01*
X156765004Y-48163794D01*
X156592009Y-48038106D01*
X156401483Y-47941027D01*
X156401480Y-47941026D01*
X156198117Y-47874951D01*
X156092516Y-47858225D01*
X155986916Y-47841500D01*
X155773084Y-47841500D01*
X155702684Y-47852650D01*
X155561882Y-47874951D01*
X155358519Y-47941026D01*
X155358516Y-47941027D01*
X155167990Y-48038106D01*
X154994993Y-48163796D01*
X154843796Y-48314993D01*
X154718105Y-48487991D01*
X154715727Y-48491873D01*
X154663914Y-48538748D01*
X154594984Y-48550169D01*
X154530822Y-48522512D01*
X154504273Y-48491873D01*
X154501894Y-48487991D01*
X154501891Y-48487987D01*
X154376206Y-48314996D01*
X154225004Y-48163794D01*
X154052009Y-48038106D01*
X153861483Y-47941027D01*
X153861480Y-47941026D01*
X153658117Y-47874951D01*
X153552516Y-47858225D01*
X153446916Y-47841500D01*
X153233084Y-47841500D01*
X153162684Y-47852650D01*
X153021882Y-47874951D01*
X152818519Y-47941026D01*
X152818516Y-47941027D01*
X152627990Y-48038106D01*
X152454993Y-48163796D01*
X152303796Y-48314993D01*
X152178105Y-48487991D01*
X152175727Y-48491873D01*
X152123914Y-48538748D01*
X152054984Y-48550169D01*
X151990822Y-48522512D01*
X151964273Y-48491873D01*
X151961894Y-48487991D01*
X151961891Y-48487987D01*
X151836206Y-48314996D01*
X151685004Y-48163794D01*
X151512009Y-48038106D01*
X151321483Y-47941027D01*
X151321480Y-47941026D01*
X151118117Y-47874951D01*
X151012516Y-47858225D01*
X150906916Y-47841500D01*
X150693084Y-47841500D01*
X150622684Y-47852650D01*
X150481882Y-47874951D01*
X150278519Y-47941026D01*
X150278516Y-47941027D01*
X150087990Y-48038106D01*
X149914993Y-48163796D01*
X149763796Y-48314993D01*
X149638105Y-48487991D01*
X149635727Y-48491873D01*
X149583914Y-48538748D01*
X149514984Y-48550169D01*
X149450822Y-48522512D01*
X149424273Y-48491873D01*
X149421894Y-48487991D01*
X149421891Y-48487987D01*
X149296206Y-48314996D01*
X149145004Y-48163794D01*
X148972009Y-48038106D01*
X148781483Y-47941027D01*
X148781480Y-47941026D01*
X148578117Y-47874951D01*
X148472516Y-47858225D01*
X148366916Y-47841500D01*
X148153084Y-47841500D01*
X148082684Y-47852650D01*
X147941882Y-47874951D01*
X147738519Y-47941026D01*
X147738516Y-47941027D01*
X147547990Y-48038106D01*
X147374997Y-48163793D01*
X147269818Y-48268972D01*
X147208495Y-48302456D01*
X147138803Y-48297472D01*
X147082870Y-48255600D01*
X147065958Y-48224629D01*
X147020889Y-48103796D01*
X146933261Y-47986739D01*
X146816204Y-47899111D01*
X146679203Y-47848011D01*
X146618654Y-47841500D01*
X146618638Y-47841500D01*
X144821362Y-47841500D01*
X144821345Y-47841500D01*
X144760797Y-47848011D01*
X144760795Y-47848011D01*
X144623795Y-47899111D01*
X144506739Y-47986739D01*
X144419111Y-48103795D01*
X144368011Y-48240795D01*
X144368011Y-48240797D01*
X144361500Y-48301345D01*
X142678555Y-48301345D01*
X142541004Y-48163794D01*
X142368009Y-48038106D01*
X142177483Y-47941027D01*
X142177480Y-47941026D01*
X141974117Y-47874951D01*
X141868516Y-47858225D01*
X141762916Y-47841500D01*
X141549084Y-47841500D01*
X141478684Y-47852650D01*
X141337882Y-47874951D01*
X141134519Y-47941026D01*
X141134516Y-47941027D01*
X140943990Y-48038106D01*
X140770993Y-48163796D01*
X140619796Y-48314993D01*
X140494105Y-48487991D01*
X140491727Y-48491873D01*
X140439914Y-48538748D01*
X140370984Y-48550169D01*
X140306822Y-48522512D01*
X140280273Y-48491873D01*
X140277894Y-48487991D01*
X140277891Y-48487987D01*
X140152206Y-48314996D01*
X140001004Y-48163794D01*
X139828009Y-48038106D01*
X139637483Y-47941027D01*
X139637480Y-47941026D01*
X139434117Y-47874951D01*
X139328516Y-47858225D01*
X139222916Y-47841500D01*
X139009084Y-47841500D01*
X138938684Y-47852650D01*
X138797882Y-47874951D01*
X138594519Y-47941026D01*
X138594516Y-47941027D01*
X138403990Y-48038106D01*
X138230993Y-48163796D01*
X138079796Y-48314993D01*
X137954105Y-48487991D01*
X137951727Y-48491873D01*
X137899914Y-48538748D01*
X137830984Y-48550169D01*
X137766822Y-48522512D01*
X137740273Y-48491873D01*
X137737894Y-48487991D01*
X137737891Y-48487987D01*
X137612206Y-48314996D01*
X137461004Y-48163794D01*
X137288009Y-48038106D01*
X137097483Y-47941027D01*
X137097480Y-47941026D01*
X136894117Y-47874951D01*
X136788516Y-47858225D01*
X136682916Y-47841500D01*
X136469084Y-47841500D01*
X136398684Y-47852650D01*
X136257882Y-47874951D01*
X136054519Y-47941026D01*
X136054516Y-47941027D01*
X135863990Y-48038106D01*
X135690993Y-48163796D01*
X135539796Y-48314993D01*
X135414105Y-48487991D01*
X135411727Y-48491873D01*
X135359914Y-48538748D01*
X135290984Y-48550169D01*
X135226822Y-48522512D01*
X135200273Y-48491873D01*
X135197894Y-48487991D01*
X135197891Y-48487987D01*
X135072206Y-48314996D01*
X134921004Y-48163794D01*
X134748009Y-48038106D01*
X134557483Y-47941027D01*
X134557480Y-47941026D01*
X134354117Y-47874951D01*
X134248516Y-47858225D01*
X134142916Y-47841500D01*
X133929084Y-47841500D01*
X133858684Y-47852650D01*
X133717882Y-47874951D01*
X133514519Y-47941026D01*
X133514516Y-47941027D01*
X133323990Y-48038106D01*
X133150993Y-48163796D01*
X132999796Y-48314993D01*
X132874105Y-48487991D01*
X132871727Y-48491873D01*
X132819914Y-48538748D01*
X132750984Y-48550169D01*
X132686822Y-48522512D01*
X132660273Y-48491873D01*
X132657894Y-48487991D01*
X132657891Y-48487987D01*
X132532206Y-48314996D01*
X132381004Y-48163794D01*
X132208009Y-48038106D01*
X132017483Y-47941027D01*
X132017480Y-47941026D01*
X131814117Y-47874951D01*
X131708516Y-47858225D01*
X131602916Y-47841500D01*
X131389084Y-47841500D01*
X131318684Y-47852650D01*
X131177882Y-47874951D01*
X130974519Y-47941026D01*
X130974516Y-47941027D01*
X130783990Y-48038106D01*
X130610993Y-48163796D01*
X130459796Y-48314993D01*
X130334105Y-48487991D01*
X130331727Y-48491873D01*
X130279914Y-48538748D01*
X130210984Y-48550169D01*
X130146822Y-48522512D01*
X130120273Y-48491873D01*
X130117894Y-48487991D01*
X130117891Y-48487987D01*
X129992206Y-48314996D01*
X129841004Y-48163794D01*
X129668009Y-48038106D01*
X129477483Y-47941027D01*
X129477480Y-47941026D01*
X129274117Y-47874951D01*
X129168516Y-47858225D01*
X129062916Y-47841500D01*
X128849084Y-47841500D01*
X128778684Y-47852650D01*
X128637882Y-47874951D01*
X128434519Y-47941026D01*
X128434516Y-47941027D01*
X128243990Y-48038106D01*
X128070993Y-48163796D01*
X127919796Y-48314993D01*
X127794103Y-48487994D01*
X127791709Y-48492693D01*
X127743731Y-48543485D01*
X127675908Y-48560275D01*
X127609775Y-48537732D01*
X127573800Y-48496210D01*
X127573168Y-48496598D01*
X127570829Y-48492781D01*
X127570743Y-48492682D01*
X127570620Y-48492441D01*
X127445727Y-48320540D01*
X127445723Y-48320535D01*
X127295464Y-48170276D01*
X127295459Y-48170272D01*
X127123557Y-48045379D01*
X126934215Y-47948903D01*
X126732124Y-47883241D01*
X126666000Y-47872768D01*
X126666000Y-48766988D01*
X126608993Y-48734075D01*
X126481826Y-48700000D01*
X126350174Y-48700000D01*
X126223007Y-48734075D01*
X126166000Y-48766988D01*
X126166000Y-47872768D01*
X126165999Y-47872768D01*
X126099875Y-47883241D01*
X125897784Y-47948903D01*
X125708442Y-48045379D01*
X125536540Y-48170272D01*
X125536535Y-48170276D01*
X125386276Y-48320535D01*
X125386272Y-48320540D01*
X125261376Y-48492446D01*
X125261374Y-48492448D01*
X125261246Y-48492701D01*
X125261172Y-48492779D01*
X125258832Y-48496598D01*
X125258029Y-48496106D01*
X125213264Y-48543489D01*
X125145441Y-48560274D01*
X125079309Y-48537727D01*
X125040285Y-48492683D01*
X125037895Y-48487992D01*
X125006472Y-48444742D01*
X124912206Y-48314996D01*
X124761004Y-48163794D01*
X124588009Y-48038106D01*
X124397483Y-47941027D01*
X124397480Y-47941026D01*
X124194117Y-47874951D01*
X124088516Y-47858225D01*
X123982916Y-47841500D01*
X123769084Y-47841500D01*
X123698684Y-47852650D01*
X123557882Y-47874951D01*
X123354519Y-47941026D01*
X123354516Y-47941027D01*
X123163990Y-48038106D01*
X122990993Y-48163796D01*
X122839796Y-48314993D01*
X122714105Y-48487991D01*
X122711727Y-48491873D01*
X122659914Y-48538748D01*
X122590984Y-48550169D01*
X122526822Y-48522512D01*
X122500273Y-48491873D01*
X122497894Y-48487991D01*
X122497891Y-48487987D01*
X122372206Y-48314996D01*
X122221004Y-48163794D01*
X122048009Y-48038106D01*
X121857483Y-47941027D01*
X121857480Y-47941026D01*
X121654117Y-47874951D01*
X121548516Y-47858225D01*
X121442916Y-47841500D01*
X121229084Y-47841500D01*
X121158684Y-47852650D01*
X121017882Y-47874951D01*
X120814519Y-47941026D01*
X120814516Y-47941027D01*
X120623990Y-48038106D01*
X120450997Y-48163793D01*
X120345818Y-48268972D01*
X120284495Y-48302456D01*
X120214803Y-48297472D01*
X120158870Y-48255600D01*
X120141958Y-48224629D01*
X120096889Y-48103796D01*
X120009261Y-47986739D01*
X119892204Y-47899111D01*
X119755203Y-47848011D01*
X119694654Y-47841500D01*
X119694638Y-47841500D01*
X117897362Y-47841500D01*
X117897345Y-47841500D01*
X117836797Y-47848011D01*
X117836795Y-47848011D01*
X117699795Y-47899111D01*
X117582739Y-47986739D01*
X117495111Y-48103795D01*
X117444011Y-48240795D01*
X117444011Y-48240797D01*
X117437500Y-48301345D01*
X116565416Y-48301345D01*
X116562602Y-48297472D01*
X116460798Y-48157350D01*
X116460794Y-48157345D01*
X116282654Y-47979205D01*
X116282649Y-47979201D01*
X116078848Y-47831132D01*
X116078847Y-47831131D01*
X116078845Y-47831130D01*
X116008747Y-47795413D01*
X115854383Y-47716760D01*
X115614785Y-47638910D01*
X115365962Y-47599500D01*
X115114038Y-47599500D01*
X114989626Y-47619205D01*
X114865214Y-47638910D01*
X114625616Y-47716760D01*
X114401151Y-47831132D01*
X114197350Y-47979201D01*
X114197345Y-47979205D01*
X114019205Y-48157345D01*
X114019201Y-48157350D01*
X113871132Y-48361151D01*
X113756760Y-48585616D01*
X113678910Y-48825214D01*
X113639500Y-49074038D01*
X100075500Y-49074038D01*
X100075500Y-47428092D01*
X100076097Y-47415938D01*
X100087494Y-47300222D01*
X100092234Y-47276389D01*
X100124216Y-47170959D01*
X100133508Y-47148526D01*
X100185442Y-47051365D01*
X100198938Y-47031166D01*
X100268827Y-46946006D01*
X100286006Y-46928827D01*
X100371166Y-46858938D01*
X100391365Y-46845442D01*
X100488526Y-46793508D01*
X100510959Y-46784216D01*
X100616389Y-46752234D01*
X100640220Y-46747494D01*
X100755939Y-46736097D01*
X100768093Y-46735500D01*
X100786531Y-46735500D01*
X163417365Y-46735500D01*
X163484404Y-46755185D01*
G37*
%TD.AperFunction*%
%TD*%
M02*
