M48
; DRILL file {KiCad 9.0.0} date 2025-04-03T14:14:06-0400
; FORMAT={-:-/ absolute / metric / decimal}
; #@! TF.CreationDate,2025-04-03T14:14:06-04:00
; #@! TF.GenerationSoftware,Kicad,Pcbnew,9.0.0
; #@! TF.FileFunction,Plated,1,2,PTH
FMAT,2
METRIC
; #@! TA.AperFunction,Plated,PTH,ComponentDrill
T1C0.800
; #@! TA.AperFunction,Plated,PTH,ComponentDrill
T2C0.900
; #@! TA.AperFunction,Plated,PTH,ComponentDrill
T3C1.000
%
G90
G05
T1
X115.748Y-53.264
X123.368Y-53.264
X129.464Y-89.84
X129.972Y-75.616
X130.01Y-72.06
X131.964Y-89.84
X132.552Y-79.68
X133.982Y-66.98
X133.99Y-57.09
X133.99Y-60.34
X133.99Y-63.66
X134.0Y-53.86
X135.052Y-79.68
X137.592Y-75.616
X137.63Y-72.06
X138.1Y-89.84
X140.6Y-89.84
X141.602Y-66.98
X141.61Y-57.09
X141.61Y-60.34
X141.61Y-63.66
X141.62Y-53.86
X148.75Y-68.98
X149.76Y-55.56
X149.76Y-58.1
X149.76Y-60.64
X149.76Y-63.18
X151.25Y-68.98
X152.3Y-55.56
X152.3Y-58.1
X152.3Y-60.64
X152.3Y-63.18
T2
X108.885Y-53.264
X111.425Y-53.264
X143.18Y-73.648
X143.18Y-75.648
X143.18Y-77.648
X143.18Y-79.648
X155.372Y-73.632
X155.372Y-75.632
X155.372Y-77.632
X155.372Y-79.632
T3
X118.796Y-49.2
X121.336Y-49.2
X123.876Y-49.2
X126.416Y-49.2
X127.94Y-97.46
X128.956Y-49.2
X130.48Y-97.46
X131.496Y-49.2
X133.02Y-97.46
X134.036Y-49.2
X135.56Y-97.46
X136.576Y-49.2
X138.1Y-97.46
X139.116Y-49.2
X140.64Y-97.46
X141.656Y-49.2
X143.18Y-97.46
X145.72Y-49.2
X145.72Y-97.46
X148.26Y-49.2
X150.8Y-49.2
X150.8Y-97.46
X153.34Y-49.2
X153.34Y-97.46
X155.88Y-49.2
X155.88Y-97.46
X158.42Y-49.2
X158.42Y-97.46
X160.96Y-49.2
X160.96Y-97.46
X163.5Y-49.2
X163.5Y-97.46
M30
