%TF.GenerationSoftware,KiCad,Pcbnew,9.0.0*%
%TF.CreationDate,2025-04-03T14:13:48-04:00*%
%TF.ProjectId,Uno Shield Project,556e6f20-5368-4696-956c-642050726f6a,rev?*%
%TF.SameCoordinates,Original*%
%TF.FileFunction,Copper,L1,Top*%
%TF.FilePolarity,Positive*%
%FSLAX46Y46*%
G04 Gerber Fmt 4.6, Leading zero omitted, Abs format (unit mm)*
G04 Created by KiCad (PCBNEW 9.0.0) date 2025-04-03 14:13:48*
%MOMM*%
%LPD*%
G01*
G04 APERTURE LIST*
%TA.AperFunction,ComponentPad*%
%ADD10R,1.700000X1.700000*%
%TD*%
%TA.AperFunction,ComponentPad*%
%ADD11O,1.700000X1.700000*%
%TD*%
%TA.AperFunction,ComponentPad*%
%ADD12C,1.600000*%
%TD*%
%TA.AperFunction,ComponentPad*%
%ADD13O,1.600000X1.600000*%
%TD*%
%TA.AperFunction,ComponentPad*%
%ADD14R,1.500000X1.500000*%
%TD*%
%TA.AperFunction,ComponentPad*%
%ADD15C,1.500000*%
%TD*%
%TA.AperFunction,ComponentPad*%
%ADD16R,1.800000X1.800000*%
%TD*%
%TA.AperFunction,ComponentPad*%
%ADD17C,1.800000*%
%TD*%
%TA.AperFunction,ComponentPad*%
%ADD18R,1.600000X1.600000*%
%TD*%
%TA.AperFunction,Conductor*%
%ADD19C,0.508000*%
%TD*%
%TA.AperFunction,Conductor*%
%ADD20C,0.250000*%
%TD*%
%TA.AperFunction,Conductor*%
%ADD21C,0.457200*%
%TD*%
G04 APERTURE END LIST*
D10*
%TO.P,J1,1,Pin_1*%
%TO.N,unconnected-(J1-Pin_1-Pad1)*%
X127940000Y-97460000D03*
D11*
%TO.P,J1,2,Pin_2*%
%TO.N,/IOREF*%
X130480000Y-97460000D03*
%TO.P,J1,3,Pin_3*%
%TO.N,/~{RESET}*%
X133020000Y-97460000D03*
%TO.P,J1,4,Pin_4*%
%TO.N,+3V3*%
X135560000Y-97460000D03*
%TO.P,J1,5,Pin_5*%
%TO.N,+5V*%
X138100000Y-97460000D03*
%TO.P,J1,6,Pin_6*%
%TO.N,GND*%
X140640000Y-97460000D03*
%TO.P,J1,7,Pin_7*%
X143180000Y-97460000D03*
%TO.P,J1,8,Pin_8*%
%TO.N,VCC*%
X145720000Y-97460000D03*
%TD*%
D10*
%TO.P,J3,1,Pin_1*%
%TO.N,/A0*%
X150800000Y-97460000D03*
D11*
%TO.P,J3,2,Pin_2*%
%TO.N,/A1*%
X153340000Y-97460000D03*
%TO.P,J3,3,Pin_3*%
%TO.N,/A2*%
X155880000Y-97460000D03*
%TO.P,J3,4,Pin_4*%
%TO.N,/A3*%
X158420000Y-97460000D03*
%TO.P,J3,5,Pin_5*%
%TO.N,/A4*%
X160960000Y-97460000D03*
%TO.P,J3,6,Pin_6*%
%TO.N,/A5*%
X163500000Y-97460000D03*
%TD*%
D10*
%TO.P,J2,1,Pin_1*%
%TO.N,/SCL{slash}A5*%
X118796000Y-49200000D03*
D11*
%TO.P,J2,2,Pin_2*%
%TO.N,/SDA{slash}A4*%
X121336000Y-49200000D03*
%TO.P,J2,3,Pin_3*%
%TO.N,/AREF*%
X123876000Y-49200000D03*
%TO.P,J2,4,Pin_4*%
%TO.N,GND*%
X126416000Y-49200000D03*
%TO.P,J2,5,Pin_5*%
%TO.N,/13*%
X128956000Y-49200000D03*
%TO.P,J2,6,Pin_6*%
%TO.N,/12*%
X131496000Y-49200000D03*
%TO.P,J2,7,Pin_7*%
%TO.N,/\u002A11*%
X134036000Y-49200000D03*
%TO.P,J2,8,Pin_8*%
%TO.N,/\u002A10*%
X136576000Y-49200000D03*
%TO.P,J2,9,Pin_9*%
%TO.N,/\u002A9*%
X139116000Y-49200000D03*
%TO.P,J2,10,Pin_10*%
%TO.N,/8*%
X141656000Y-49200000D03*
%TD*%
D10*
%TO.P,J4,1,Pin_1*%
%TO.N,/7*%
X145720000Y-49200000D03*
D11*
%TO.P,J4,2,Pin_2*%
%TO.N,/\u002A6*%
X148260000Y-49200000D03*
%TO.P,J4,3,Pin_3*%
%TO.N,/\u002A5*%
X150800000Y-49200000D03*
%TO.P,J4,4,Pin_4*%
%TO.N,/4*%
X153340000Y-49200000D03*
%TO.P,J4,5,Pin_5*%
%TO.N,/\u002A3*%
X155880000Y-49200000D03*
%TO.P,J4,6,Pin_6*%
%TO.N,/2*%
X158420000Y-49200000D03*
%TO.P,J4,7,Pin_7*%
%TO.N,/TX{slash}1*%
X160960000Y-49200000D03*
%TO.P,J4,8,Pin_8*%
%TO.N,/RX{slash}0*%
X163500000Y-49200000D03*
%TD*%
D12*
%TO.P,R4,1*%
%TO.N,Net-(U1-RXD)*%
X141610000Y-57090000D03*
D13*
%TO.P,R4,2*%
%TO.N,GND*%
X133990000Y-57090000D03*
%TD*%
D14*
%TO.P,U1,1,GND*%
%TO.N,GND*%
X152300000Y-55560000D03*
D15*
%TO.P,U1,2,IO2*%
%TO.N,unconnected-(U1-IO2-Pad2)*%
X152300000Y-58100000D03*
%TO.P,U1,3,IO0*%
%TO.N,unconnected-(U1-IO0-Pad3)*%
X152300000Y-60640000D03*
%TO.P,U1,4,RXD*%
%TO.N,Net-(U1-RXD)*%
X152300000Y-63180000D03*
%TO.P,U1,5,TXD*%
%TO.N,/\u002A10*%
X149760000Y-55560000D03*
%TO.P,U1,6,EN*%
%TO.N,unconnected-(U1-EN-Pad6)*%
X149760000Y-58100000D03*
%TO.P,U1,7,~{RST}*%
%TO.N,Net-(U1-~{RST})*%
X149760000Y-60640000D03*
%TO.P,U1,8,VCC*%
%TO.N,+3V3*%
X149760000Y-63180000D03*
%TD*%
D12*
%TO.P,C3,1*%
%TO.N,+3V3*%
X148750000Y-68980000D03*
%TO.P,C3,2*%
%TO.N,GND*%
X151250000Y-68980000D03*
%TD*%
%TO.P,R1,1*%
%TO.N,/\u002A11*%
X134000000Y-53860000D03*
D13*
%TO.P,R1,2*%
%TO.N,Net-(U1-RXD)*%
X141620000Y-53860000D03*
%TD*%
D16*
%TO.P,D3,1,K*%
%TO.N,GND*%
X108885000Y-53264000D03*
D17*
%TO.P,D3,2,A*%
%TO.N,Net-(D3-A)*%
X111425000Y-53264000D03*
%TD*%
D14*
%TO.P,J6,1,1*%
%TO.N,GND*%
X155372000Y-79632000D03*
D15*
%TO.P,J6,2,2*%
%TO.N,+5V*%
X155372000Y-77632000D03*
%TO.P,J6,3,3*%
%TO.N,unconnected-(J6-Pad3)*%
X155372000Y-75632000D03*
%TO.P,J6,4,4*%
%TO.N,/\u002A6*%
X155372000Y-73632000D03*
%TD*%
D14*
%TO.P,J5,1,1*%
%TO.N,GND*%
X143180000Y-79648000D03*
D15*
%TO.P,J5,2,2*%
%TO.N,+5V*%
X143180000Y-77648000D03*
%TO.P,J5,3,3*%
%TO.N,Net-(J5-Pad3)*%
X143180000Y-75648000D03*
%TO.P,J5,4,4*%
%TO.N,Net-(J5-Pad4)*%
X143180000Y-73648000D03*
%TD*%
D12*
%TO.P,R7,1*%
%TO.N,/13*%
X123368000Y-53264000D03*
D13*
%TO.P,R7,2*%
%TO.N,Net-(D3-A)*%
X115748000Y-53264000D03*
%TD*%
D12*
%TO.P,R10,1*%
%TO.N,+5V*%
X129972000Y-75616000D03*
D13*
%TO.P,R10,2*%
%TO.N,Net-(J5-Pad3)*%
X137592000Y-75616000D03*
%TD*%
D12*
%TO.P,C4,1*%
%TO.N,+5V*%
X132552000Y-79680000D03*
%TO.P,C4,2*%
%TO.N,GND*%
X135052000Y-79680000D03*
%TD*%
D18*
%TO.P,C2,1*%
%TO.N,+3V3*%
X131964000Y-89840000D03*
D12*
%TO.P,C2,2*%
%TO.N,GND*%
X129464000Y-89840000D03*
%TD*%
%TO.P,R2,1*%
%TO.N,Net-(U1-RXD)*%
X141602000Y-66980000D03*
D13*
%TO.P,R2,2*%
%TO.N,+3V3*%
X133982000Y-66980000D03*
%TD*%
D12*
%TO.P,R8,1*%
%TO.N,Net-(U1-~{RST})*%
X141610000Y-63660000D03*
D13*
%TO.P,R8,2*%
%TO.N,GND*%
X133990000Y-63660000D03*
%TD*%
D18*
%TO.P,C1,1*%
%TO.N,+5V*%
X138100000Y-89840000D03*
D12*
%TO.P,C1,2*%
%TO.N,GND*%
X140600000Y-89840000D03*
%TD*%
%TO.P,R9,1*%
%TO.N,+5V*%
X130010000Y-72060000D03*
D13*
%TO.P,R9,2*%
%TO.N,Net-(J5-Pad4)*%
X137630000Y-72060000D03*
%TD*%
D12*
%TO.P,R3,1*%
%TO.N,/\u002A9*%
X133990000Y-60340000D03*
D13*
%TO.P,R3,2*%
%TO.N,Net-(U1-~{RST})*%
X141610000Y-60340000D03*
%TD*%
D19*
%TO.N,+5V*%
X129972000Y-75616000D02*
X129972000Y-77648000D01*
X130010000Y-75578000D02*
X129972000Y-75616000D01*
X135560000Y-84252000D02*
X146228000Y-84252000D01*
X129972000Y-77648000D02*
X130480000Y-78156000D01*
X135560000Y-84252000D02*
X135052000Y-84760000D01*
X137760000Y-89500000D02*
X138140000Y-89500000D01*
X135092000Y-82220000D02*
X135560000Y-82688000D01*
X132552000Y-79680000D02*
X135092000Y-82220000D01*
X135052000Y-86792000D02*
X137760000Y-89500000D01*
X139624000Y-77648000D02*
X143180000Y-77648000D01*
X135560000Y-82688000D02*
X135560000Y-84252000D01*
X138100000Y-89840000D02*
X138100000Y-97460000D01*
X130480000Y-78156000D02*
X131028000Y-78156000D01*
D20*
X138140000Y-97420000D02*
X138100000Y-97460000D01*
D19*
X130010000Y-72060000D02*
X130010000Y-75578000D01*
X138608000Y-82220000D02*
X139624000Y-81204000D01*
X139624000Y-81204000D02*
X139624000Y-77648000D01*
X130010000Y-72060000D02*
X129972000Y-72098000D01*
X135092000Y-82220000D02*
X138608000Y-82220000D01*
X146228000Y-84252000D02*
X152848000Y-77632000D01*
X131028000Y-78156000D02*
X132552000Y-79680000D01*
X152848000Y-77632000D02*
X155372000Y-77632000D01*
X135052000Y-84760000D02*
X135052000Y-86792000D01*
D20*
%TO.N,/13*%
X128956000Y-50724000D02*
X128956000Y-49200000D01*
X126416000Y-53264000D02*
X128956000Y-50724000D01*
X123368000Y-53264000D02*
X126416000Y-53264000D01*
%TO.N,/\u002A11*%
X134000000Y-53860000D02*
X134000000Y-49236000D01*
X134000000Y-49236000D02*
X134036000Y-49200000D01*
%TO.N,/\u002A10*%
X143688000Y-51232000D02*
X144196000Y-51740000D01*
X143688000Y-47676000D02*
X143688000Y-51232000D01*
X143180000Y-47168000D02*
X143688000Y-47676000D01*
X138608000Y-47168000D02*
X143180000Y-47168000D01*
X144196000Y-51740000D02*
X146228000Y-51740000D01*
X148016000Y-55560000D02*
X149760000Y-55560000D01*
X146228000Y-51740000D02*
X146736000Y-52248000D01*
X146736000Y-52248000D02*
X146736000Y-54280000D01*
X146736000Y-54280000D02*
X148016000Y-55560000D01*
X138608000Y-47168000D02*
X136576000Y-49200000D01*
%TO.N,/\u002A9*%
X140480000Y-49548000D02*
X140132000Y-49200000D01*
X143688000Y-58852000D02*
X144196000Y-58344000D01*
X133990000Y-59406000D02*
X134544000Y-58852000D01*
X144196000Y-58344000D02*
X144196000Y-52756000D01*
X143123000Y-52191000D02*
X142672000Y-51740000D01*
X143631000Y-52191000D02*
X143123000Y-52191000D01*
X134544000Y-58852000D02*
X143688000Y-58852000D01*
X140132000Y-49200000D02*
X139116000Y-49200000D01*
X133990000Y-60340000D02*
X133990000Y-59406000D01*
X140480000Y-51072000D02*
X140480000Y-49548000D01*
X141148000Y-51740000D02*
X140480000Y-51072000D01*
X144196000Y-52756000D02*
X143631000Y-52191000D01*
X142672000Y-51740000D02*
X141148000Y-51740000D01*
D21*
%TO.N,/\u002A6*%
X155372000Y-72128500D02*
X155372000Y-73632000D01*
X154610000Y-71366500D02*
X155372000Y-72128500D01*
D19*
X148260000Y-49200000D02*
X154610000Y-55550000D01*
D21*
X154610000Y-55550000D02*
X154610000Y-71366500D01*
D19*
%TO.N,+3V3*%
X135560000Y-90856000D02*
X135560000Y-97460000D01*
X130480000Y-66980000D02*
X133982000Y-66980000D01*
X133982000Y-66980000D02*
X133982000Y-68958000D01*
X133982000Y-68958000D02*
X135052000Y-70028000D01*
X134544000Y-89840000D02*
X131964000Y-89840000D01*
X134544000Y-89840000D02*
X135560000Y-90856000D01*
X131964000Y-84974000D02*
X126670000Y-79680000D01*
X126670000Y-79680000D02*
X126670000Y-70790000D01*
X148750000Y-68980000D02*
X148750000Y-64190000D01*
X126670000Y-70790000D02*
X130480000Y-66980000D01*
X131964000Y-84974000D02*
X131964000Y-89840000D01*
X147702000Y-70028000D02*
X148750000Y-68980000D01*
X135052000Y-70028000D02*
X147702000Y-70028000D01*
X148750000Y-64190000D02*
X149760000Y-63180000D01*
D20*
%TO.N,Net-(U1-~{RST})*%
X141610000Y-60340000D02*
X149460000Y-60340000D01*
X141910000Y-60640000D02*
X141610000Y-60340000D01*
X149460000Y-60340000D02*
X149760000Y-60640000D01*
X141610000Y-60340000D02*
X141610000Y-63660000D01*
%TO.N,Net-(U1-RXD)*%
X141610000Y-53870000D02*
X141620000Y-53860000D01*
X146228000Y-62916000D02*
X147244000Y-61900000D01*
X151020000Y-61900000D02*
X152300000Y-63180000D01*
X133528000Y-65456000D02*
X140078000Y-65456000D01*
X132004000Y-63932000D02*
X133528000Y-65456000D01*
X132004000Y-58852000D02*
X132004000Y-63932000D01*
X132512000Y-58344000D02*
X132004000Y-58852000D01*
X141610000Y-57090000D02*
X141610000Y-53870000D01*
X144196000Y-66980000D02*
X146228000Y-64948000D01*
X140078000Y-65456000D02*
X141602000Y-66980000D01*
X140356000Y-58344000D02*
X141610000Y-57090000D01*
X141620000Y-54280000D02*
X141610000Y-54290000D01*
X146228000Y-64948000D02*
X146228000Y-62916000D01*
X141602000Y-66980000D02*
X144196000Y-66980000D01*
X140356000Y-58344000D02*
X132512000Y-58344000D01*
X147244000Y-61900000D02*
X151020000Y-61900000D01*
%TO.N,Net-(D3-A)*%
X111425000Y-53264000D02*
X115748000Y-53264000D01*
%TO.N,Net-(J5-Pad4)*%
X137630000Y-72060000D02*
X141592000Y-72060000D01*
X141592000Y-72060000D02*
X143180000Y-73648000D01*
%TO.N,Net-(J5-Pad3)*%
X143148000Y-75616000D02*
X143180000Y-75648000D01*
X137592000Y-75616000D02*
X143148000Y-75616000D01*
%TD*%
M02*
